<?xml version="1.0" encoding="UTF-8"?>
<!DOCTYPE svg PUBLIC "-//W3C//DTD SVG 1.1//EN" "http://www.w3.org/Graphics/SVG/1.1/DTD/svg11.dtd">
<!-- Creator: CorelDRAW -->
<svg xmlns="http://www.w3.org/2000/svg" xml:space="preserve" width="16mm" height="16mm" version="1.1" style="shape-rendering:geometricPrecision; text-rendering:geometricPrecision; image-rendering:optimizeQuality; fill-rule:evenodd; clip-rule:evenodd"
viewBox="0 0 134.73 134.73"
 xmlns:xlink="http://www.w3.org/1999/xlink"
 xmlns:xodm="http://www.corel.com/coreldraw/odm/2003">
 <defs>
  <style type="text/css">
   <![CDATA[
    .fil0 {fill:black}
    .fil6 {fill:#01D0FB}
    .fil7 {fill:#585858}
    .fil3 {fill:#61DAFA}
    .fil4 {fill:#828282}
    .fil1 {fill:#98E5FB}
    .fil5 {fill:#ACACAC}
    .fil2 {fill:#BEBEBE}
   ]]>
  </style>
 </defs>
 <g id="Camada_x0020_1">
  <metadata id="CorelCorpID_0Corel-Layer"/>
  <g id="_1934032330720">
   <path class="fil0" d="M95.06 132.89c-0.43,-2.41 -1.5,-2.12 -4,-2.11l-87.11 0 0.03 -31.82c2.52,0.87 2.97,2.69 7.07,2.78 4.02,0.1 4.69,-1.41 7.24,-2.67 5.36,-2.65 7.86,5.43 15.57,1.88 2.27,-1.05 3.82,-3.26 7.29,-2.11 2.53,0.84 2.99,2.7 7,2.89 3.94,0.19 4.87,-1.23 7.34,-2.57 3.08,-1.67 5.2,0.18 7.16,1.33 2.26,1.33 5.43,1.74 8.21,0.62 2.39,-0.97 3.78,-3.18 7.23,-2.39 3.65,0.84 5.87,6.12 14.28,0.74 5.68,-3.63 7.71,4.53 15.48,1.79 2.47,-0.87 3.79,-3.08 7.14,-2.62 2.41,0.33 3.49,2.41 6.64,2.95 1.9,0.27 3.85,0.15 5.47,-0.55 1.37,-0.59 2.43,-1.66 3.69,-2.07l0 31.82 -6.52 0c-4.4,-0.01 -8.81,-0 -13.22,-0 -2.19,0 -4.39,0.01 -6.58,-0 -2.34,-0.01 -3.81,-0.26 -4.18,2.11 0.21,1.17 0.81,1.66 1.87,1.84l6 0 24.66 0c1.34,-0.12 1.82,-0.7 1.92,-2.03l0 -36.26c-0.07,-0.98 -0.38,-1.61 -1.58,-1.71 0,-1.32 0,-2.64 0.01,-3.95 0.01,-1.68 -0.26,-2.15 -0.28,-3.67 -0.02,-1.28 0.08,-2.69 0.01,-3.96l-0.52 -11.85c0.01,-1.68 -0.26,-2.15 -0.28,-3.67 -0.02,-1.3 0.11,-2.92 -0.03,-4.18l-0.48 -11.62c0.01,-1.74 -0.28,-2.27 -0.28,-3.93 -0.01,-5.4 -0.44,-10.36 -0.51,-15.81 -0.02,-1.52 -0.29,-1.98 -0.28,-3.67l-0.48 -11.62c-0.43,-3.83 0.39,-12.89 -1.19,-15.13 -0.75,-1.07 -2.13,-1.51 -3.81,-1.67l-7.13 0c-4.79,0.24 -4.23,4.38 -4.23,7.63 0,2.72 0,5.44 0,8.16l-92.63 0c0,-2.63 0,-5.26 0,-7.89 0,-3.27 0.44,-5.09 -1.37,-6.79 -0.72,-0.68 -1.54,-0.98 -2.47,-1.1l-4.58 0 -2.9 0c-1.59,0.06 -2.81,0.36 -3.73,1.52 -1.79,2.27 -0.94,17.14 -1.71,22.76 -0.17,1.26 -0.07,2.6 -0.07,3.88 0.01,1.74 -0.28,2.27 -0.28,3.93 -0.01,5.34 -0.53,10.26 -0.51,15.54 0.01,1.68 -0.26,2.15 -0.28,3.67 -0.05,3.68 0.04,8.39 -0.44,11.92 -0.17,1.26 -0.07,2.6 -0.07,3.88l-0.53 11.84c0.01,2.8 -0.25,4.91 -0.25,7.9 -0,1.63 -0.28,2.04 -0.28,3.67 -0,1.41 0.01,2.81 0.01,4.22 -0.99,0.08 -1.42,0.71 -1.58,1.7l0 5.15 0 30.86c0.08,1.39 0.55,2.03 1.58,2.3l8.69 0 82.83 0c1.29,-0.07 1.71,-0.42 1.96,-1.84z"/>
   <path class="fil1" d="M95.06 132.89l5.24 0c0.37,-2.36 1.83,-2.12 4.18,-2.11 2.19,0.01 4.39,0 6.58,0 4.4,0 8.81,-0.01 13.22,0l0 -28.69c-1.21,-0 -1.72,0.22 -2.64,-0.51 -3.15,-0.54 -4.23,-2.61 -6.64,-2.95 -3.35,-0.46 -4.67,1.75 -7.14,2.62 -7.77,2.74 -9.8,-5.42 -15.48,-1.79 -8.41,5.38 -10.62,0.1 -14.28,-0.74 -3.45,-0.79 -4.85,1.42 -7.23,2.39 -2.78,1.13 -5.95,0.72 -8.21,-0.62 -1.95,-1.15 -4.08,-3.01 -7.16,-1.33 -2.47,1.34 -3.4,2.76 -7.34,2.57 -4.01,-0.19 -4.47,-2.05 -7,-2.89 -3.47,-1.15 -5.01,1.06 -7.29,2.11 -7.71,3.55 -10.21,-4.53 -15.57,-1.88 -2.56,1.26 -3.23,2.77 -7.24,2.67 -4.1,-0.1 -4.55,-1.91 -7.07,-2.78l-0.03 31.82 87.11 -0c2.5,-0.01 3.57,-0.31 4,2.11z"/>
   <path class="fil2" d="M18.95 73.9l0.15 5.29c2.04,0.41 1.87,1.88 1.86,3.97 -0.01,2.01 -0.01,4.03 -0,6.04 2.11,0.09 3.13,0.5 4.95,0.81 0.49,-11.84 0.97,-23.69 1.42,-35.52 0.25,-6.53 1.76,-10.1 5.07,-13.66 7.09,-7.61 20,-6.84 26.05,0.19 3.13,3.64 4.58,7.28 4.83,13.75 0.48,12.04 0.99,24.03 1.44,36.06 0.89,0.33 2.09,1.4 2.63,1.4 0.59,-0 1.77,-1.08 2.65,-1.4 0.4,-10.53 0.85,-21.08 1.26,-31.6 0.21,-5.31 -0.06,-9.78 2.23,-14.14 6.88,-13.12 23.94,-12.39 31.13,-1.28 2.78,4.29 2.67,8.07 2.9,13.74 0.21,5.25 0.52,10.58 0.63,15.83 0.49,-1.17 0.16,-39.99 0.16,-44.95l-87.36 -0.01 0 41.6c0.01,2.1 0.29,3.59 -2.01,3.89z"/>
   <path class="fil3" d="M74.13 86.91l-0.1 2.44c11.84,-0.9 9.89,4.53 13.31,2.21 1.28,-0.87 2.36,-1.41 3.92,-1.81 -0.69,-1.45 -0.45,-2.89 -0.46,-4.75 -0.01,-1.84 -0.2,-3.48 1.59,-3.73 2.09,-0.29 2.36,1.25 2.37,2.93 0.01,1.51 0.1,3.49 -0.15,4.94 2.34,0.1 3.77,0.17 5.87,0.9 1.55,0.54 3.62,2.1 4.49,2.2l-1.48 -37 -28.11 0.01 -1.24 31.66z"/>
   <path class="fil3" d="M29.89 89.49l-0.06 2.79c1.13,-0.39 1.69,-0.99 2.75,-1.54 0.89,-0.46 2.15,-0.76 2.97,-1.23 -0.45,-1.44 -0.28,-3.19 -0.29,-4.79 -0.01,-1.79 -0.09,-3.24 1.61,-3.46 3.12,-0.41 2.51,4.36 2.29,7.74 1.39,0.5 3.75,0.45 5.67,1.17 1.54,0.58 3.3,2.45 4.52,1.81 1.76,-0.93 2.2,-1.6 4.59,-2.26 2.28,-0.63 4.33,-0.56 6.77,-0.38l-0.08 -2.2 -1.26 -31.79 -28.12 -0.12 -1.35 34.25z"/>
   <path class="fil4" d="M115 36.1c0.72,0.56 -0.87,0.27 0.81,0.48l0 4.47c-1.35,0.51 -0.03,-0.02 -0.68,0.51 1.44,-0.08 2.2,0.22 2.51,1.5 1.14,2.29 -0.43,42.23 0.39,46.63 2.69,0.79 3.54,1.8 5.38,2.61 0.96,-0.42 1.67,-1.09 2.77,-1.63 1.26,-0.62 2.24,-0.42 2.65,-1.64 0.43,-2.41 -3.27,-84.45 -3.31,-85.08l-7.79 0.01c-0.31,7.28 -0.03,17.9 -0.03,25.77 0,3.26 0.99,6.54 -2.72,6.36z"/>
   <path class="fil4" d="M5.71 89.7c2.71,0.47 3.78,1.81 5.61,2.61 1.86,-0.81 2.65,-1.8 5.38,-2.61 0.47,-2.39 -0.59,-7.19 0.41,-8.93 0.36,-1.31 0.71,-1.38 1.99,-1.58l-0.15 -5.29c-1.54,-0.27 -1.88,-0.84 -1.94,-2.56l0.01 -49.23c0,-5.88 0.22,-12.21 -0.03,-18.04l-7.79 -0.13 -3.49 85.76z"/>
   <path class="fil5" d="M108.16 73.36l0.9 22.45 3.6 -1.04c1.31,-0.3 0.62,0.18 1.12,-0.56l0 -47.37c-0,-2.55 -0.54,-4.29 1.36,-5.28 0.65,-0.53 -0.67,0 0.68,-0.51l0 -4.47c-1.68,-0.22 -0.09,0.08 -0.81,-0.48 -1.17,-0.86 -1.23,-0.97 -1.23,-2.93 -0,-1.59 0.01,-3.18 0.01,-4.77l-5.46 0.01c0,4.96 0.33,43.78 -0.16,44.95z"/>
   <path class="fil4" d="M75.65 51.3l27.51 0c-0.71,-6.48 -6.56,-11.97 -13.68,-11.99 -7.17,-0.02 -13.11,5.46 -13.82,11.99z"/>
   <path class="fil4" d="M31.52 51.3l27.59 -0c-1.09,-6.56 -6.29,-11.87 -13.58,-11.98 -7.27,-0.12 -13.25,5.45 -14.01,11.99z"/>
   <path class="fil3" d="M121.63 101.6c0.91,0.72 1.42,0.5 2.64,0.51l0 28.69 6.52 -0 -0 -31.82c-1.26,0.42 -2.32,1.48 -3.69,2.07 -1.62,0.7 -3.57,0.82 -5.47,0.55z"/>
   <path class="fil6" d="M104.96 92.25c-0.87,-0.1 -2.94,-1.66 -4.49,-2.2 -2.09,-0.74 -3.53,-0.8 -5.87,-0.9 -0.78,1.33 -1.75,1.56 -3.35,0.6 -1.56,0.4 -2.64,0.94 -3.92,1.81 -3.42,2.32 -1.46,-3.11 -13.31,-2.21l0.1 -2.44 -0.33 8.07c3.75,-0.5 5.53,-0.43 8.3,1.34 7.42,4.74 7.02,-3.22 15.42,-1.46 3.44,0.72 3.57,2.86 7.65,2.96l-0.21 -5.58z"/>
   <path class="fil6" d="M39.15 89.01c-0.94,1.62 -2.27,1.75 -3.6,0.51 -0.82,0.47 -2.08,0.77 -2.97,1.23 -1.05,0.55 -1.61,1.14 -2.75,1.54l0.06 -2.79 -0.34 8.33c3.98,-0.1 4.17,-2.15 7.45,-2.92 8.18,-1.92 8.53,6.06 15.48,1.52 3.03,-1.98 4.44,-1.97 8.45,-1.44l-0.3 -7.83 0.08 2.2c-2.44,-0.18 -4.49,-0.25 -6.77,0.38 -2.4,0.67 -2.84,1.34 -4.59,2.26 -1.22,0.64 -2.97,-1.23 -4.52,-1.81 -1.92,-0.72 -4.28,-0.67 -5.67,-1.17z"/>
   <path class="fil0" d="M59.41 118.8c-1.97,0.25 -2.59,0.82 -3.96,1.66 -1.57,0.96 -3.27,0.27 -3.9,1.89 -0.79,2.04 1.29,4.3 6.59,1.05 3.57,-2.19 4.6,1.17 8.18,1.59 4.97,0.59 5.81,-3.02 9.02,-2.18 1.22,0.32 6.72,4.5 7.87,0.92 0.63,-1.98 -0.9,-2.4 -2.41,-2.68 -1.61,-0.3 -2.28,-1.34 -3.91,-1.9 -4.62,-1.58 -6.88,1.42 -8.56,1.83 -3.27,0.81 -4.19,-2.78 -8.93,-2.19z"/>
   <path class="fil0" d="M24.41 108.27c-2.08,0.29 -2.42,0.83 -3.9,1.7 -1.48,0.87 -3.42,0.25 -3.89,1.95 -0.55,1.98 1.11,2.73 2.84,2.54 1.99,-0.22 2.67,-0.92 4.05,-1.76 3.13,-1.92 4.76,1.55 8.33,1.79 4.58,0.3 5.62,-3.14 8.75,-2.19 1.22,0.37 2.12,1.43 3.63,1.9 1.81,0.56 3.8,0.54 4.15,-1.14 0.46,-2.16 -1.14,-2.23 -2.76,-2.61 -1.69,-0.4 -4.17,-3.42 -8.58,-1.87 -1.48,0.52 -2.58,1.73 -3.89,1.93 -3.17,0.48 -3.92,-2.9 -8.72,-2.24z"/>
   <path class="fil0" d="M94.16 108.28c-1.98,0.29 -2.61,0.95 -3.9,1.71 -1.32,0.77 -3.39,0.34 -3.86,1.95 -0.56,1.97 0.95,2.7 2.79,2.53 1.9,-0.18 2.84,-1.02 4.07,-1.75 3.34,-1.96 4.7,1.49 8.31,1.76 4.65,0.34 5.59,-3.09 8.77,-2.2 0.15,0.04 6.89,4.48 7.8,0.8 0.54,-2.19 -1.15,-2.25 -2.79,-2.66 -1.45,-0.36 -2.18,-1.43 -3.87,-1.94 -4.8,-1.44 -6.06,1.65 -8.62,2.02 -3.08,0.44 -3.98,-2.92 -8.71,-2.23z"/>
   <path class="fil7" d="M128.84 89.04c-0.41,1.22 -1.39,1.01 -2.65,1.64 -1.1,0.54 -1.81,1.21 -2.77,1.63 -1.85,-0.81 -2.69,-1.82 -5.38,-2.61 -0.83,-4.41 0.75,-44.34 -0.39,-46.63l0.03 52.19c7.35,5.15 7.63,1.39 11.59,0.11 -0.04,-1.46 0.15,-5.4 -0.42,-6.32z"/>
   <path class="fil7" d="M5.71 89.7l-0.24 5.66c3.49,1.13 4.56,5.08 11.55,-0.12l0.09 -14.48c-1.01,1.74 0.06,6.55 -0.41,8.93 -2.72,0.8 -3.51,1.79 -5.38,2.61 -1.82,-0.8 -2.9,-2.14 -5.61,-2.61z"/>
   <path class="fil0" d="M35.55 89.52c1.34,1.24 2.67,1.11 3.6,-0.51 0.23,-3.39 0.84,-8.15 -2.29,-7.74 -1.7,0.22 -1.61,1.67 -1.61,3.46 0.01,1.6 -0.17,3.35 0.29,4.79z"/>
   <path class="fil0" d="M91.26 89.74c1.6,0.96 2.57,0.73 3.35,-0.6 0.25,-1.45 0.16,-3.43 0.15,-4.94 -0.01,-1.68 -0.27,-3.21 -2.37,-2.93 -1.79,0.25 -1.6,1.89 -1.59,3.73 0.01,1.85 -0.23,3.3 0.46,4.75z"/>
   <path class="fil5" d="M70.01 90.82c-0.88,0.32 -2.06,1.39 -2.65,1.4 -0.54,0 -1.74,-1.06 -2.63,-1.4l0.19 5.09c0.05,0.95 -0.07,0.82 0.35,1.52 1.64,0.61 2.85,0.45 4.47,-0.06l0.27 -6.55z"/>
   <path class="fil5" d="M25.91 90c-1.82,-0.3 -2.85,-0.72 -4.95,-0.81 -0,7 -0.58,4.99 2.44,5.83 0.89,0.25 1.51,0.68 2.25,0.9l0.25 -5.92z"/>
   <path class="fil0" d="M83.22 73.36c-1.73,0.54 -1.61,1.91 -1.51,4.03 0.08,1.66 1,3.07 2.86,2.21 1.84,-0.85 1.84,-7.24 -1.34,-6.24z"/>
   <path class="fil0" d="M52.73 61.02c-1.69,0.69 -1.54,1.87 -1.43,3.99 0.08,1.64 0.83,2.96 2.79,2.26 2,-0.71 1.78,-7.53 -1.35,-6.26z"/>
   <path class="fil0" d="M80.91 59.45c-1.7,0.73 -1.52,1.82 -1.44,3.98 0.06,1.65 0.85,2.94 2.79,2.28 1.98,-0.68 1.76,-7.59 -1.35,-6.26z"/>
   <path class="fil0" d="M95.52 70l0 1.32c0,3.38 3.95,3.7 3.95,-0.26l0 -1.05c0,-3.7 -3.95,-3.72 -3.95,0z"/>
   <path class="fil0" d="M39.99 70l0 1.32c0,3.4 3.95,3.67 3.95,-0.26l0 -1.05c0,-3.69 -3.95,-3.72 -3.95,0z"/>
   <path class="fil0" d="M49.07 82.63l0 1.05c0,3.86 3.94,3.78 3.94,0l0 -1.05c0,-3.72 -3.94,-3.79 -3.94,0z"/>
  </g>
 </g>
</svg>
