<?xml version="1.0" encoding="UTF-8"?>
<!DOCTYPE svg PUBLIC "-//W3C//DTD SVG 1.1//EN" "http://www.w3.org/Graphics/SVG/1.1/DTD/svg11.dtd">
<!-- Creator: CorelDRAW -->
<svg xmlns="http://www.w3.org/2000/svg" xml:space="preserve" width="16mm" height="14.331mm" version="1.1" style="shape-rendering:geometricPrecision; text-rendering:geometricPrecision; image-rendering:optimizeQuality; fill-rule:evenodd; clip-rule:evenodd"
viewBox="0 0 55.91 50.08"
 xmlns:xlink="http://www.w3.org/1999/xlink"
 xmlns:xodm="http://www.corel.com/coreldraw/odm/2003">
 <defs>
  <style type="text/css">
   <![CDATA[
    .str3 {stroke:#5EA570;stroke-width:0.7;stroke-miterlimit:22.9256}
    .str2 {stroke:#7FBD93;stroke-width:0.7;stroke-miterlimit:22.9256}
    .str4 {stroke:#91DAFA;stroke-width:0.7;stroke-miterlimit:22.9256}
    .str0 {stroke:#BD694E;stroke-width:0.7;stroke-miterlimit:22.9256}
    .str1 {stroke:#DCE5EA;stroke-width:0.7;stroke-miterlimit:22.9256}
    .fil0 {fill:black}
    .fil13 {fill:#4C6E7D}
    .fil9 {fill:#5EA570}
    .fil12 {fill:#693A2B}
    .fil7 {fill:#7FBD93}
    .fil8 {fill:#7FBD93}
    .fil10 {fill:#91DAFA}
    .fil3 {fill:#A9DDB5}
    .fil11 {fill:#B1E5FB}
    .fil4 {fill:#BD694E}
    .fil2 {fill:#C57D65}
    .fil5 {fill:#DCE5EA}
    .fil6 {fill:#DCE5EA}
    .fil1 {fill:#F6F7F9}
   ]]>
  </style>
 </defs>
 <g id="Camada_x0020_1">
  <metadata id="CorelCorpID_0Corel-Layer"/>
  <path class="fil0" d="M44.74 49.29c-0.24,-1.28 -1.74,-0.88 -3.05,-0.88l-0.02 -1.37 0.01 -7.92 11.23 -0.01c0.2,0 0.41,-0.01 0.6,-0 0.43,0.01 0.37,-0.06 0.65,0.13 0.29,0.46 0.13,7.96 0.1,9.15l-6.55 -0c-0.86,-0 -1.23,0.07 -1.38,0.88 0.31,1.01 0.6,0.76 2.48,0.76l6.53 -0.03c0.36,-0.09 0.51,-0.4 0.57,-0.81l0 -1.89 0 -8.19c-0.16,-1.88 -2.24,-1.63 -3.28,-1.63l0 -17.69c0,-1.01 0.15,-1.74 -0.76,-1.82 -1.1,0.18 -0.88,0.99 -0.87,2.04 0,0.99 0,1.99 0,2.98l-0.11 0 -1.25 0 -14.37 -0c-2.23,0 -2.19,0.08 -4.11,-0.62 -4.13,-1.52 -2.52,-1.46 -6.97,0.21 -1.16,0.43 -2.25,0.86 -3.41,1.29 -0.69,0.25 -1.34,0.31 -1.35,1.06 -0.01,0.81 0.68,0.85 1.34,0.72l0 10.47c-0,1.31 0.13,1.21 -0.47,1.59 -0.21,0.13 -0.34,0.21 -0.55,0.32 -0.3,-0.13 -0.04,-0.02 -0.34,-0.2 -0.87,-0.54 -1.81,-0.35 -3.04,-0.35l-11.46 -0 -0 -1.4 0.04 -11.44 10.56 -0c0.91,0 2.74,0.35 2.76,-0.8 0.02,-1.18 -1.76,-0.84 -2.76,-0.84l-10.59 -0 -0 -11.16 0.01 -1.4 46.03 0c0.13,0.93 0.04,2.46 0.04,3.46 0,2.73 -0.03,1.97 0.81,2.51 1.05,-0.38 0.83,-0.4 0.83,-2.51 0,-1.13 0,-2.26 0,-3.39 1.26,0 3.11,0.03 3.28,-1.71l0 -0.52c-0.05,-0.49 -0.23,-0.7 -0.43,-1.05l-3.82 -6.66c-0.55,-0.8 -1.07,-0.54 -2.95,-0.54l-31.45 0c-2.2,0 -2.31,-0.26 -2.73,0.83 0.49,0.76 0.16,0.82 1.42,0.82l33.15 -0 1.15 0c0.3,0.07 2.68,4.43 3.15,5.25 0.34,0.6 1.17,1.66 0.64,1.82 -0.4,0.12 -1.07,0.06 -1.5,0.06l-47.61 0c-3.57,0 -3.71,0.3 -2.67,-1.38 0.25,-0.55 3.14,-5.68 3.43,-5.75 1.38,0 2.77,0 4.15,0 1.88,0 2.93,0.32 3.14,-0.88 -0.12,-1.06 -1.38,-0.76 -2.59,-0.76l-5.14 -0.01c-0.9,0.02 -1.1,0.7 -1.7,1.79 -0.23,0.42 -0.39,0.71 -0.63,1.12l-2.51 4.37c-0.22,0.36 -0.35,0.74 -0.39,1.11l0 0.38c0.04,0.37 0.18,0.72 0.46,1.04 0.6,0.68 1.55,0.68 2.81,0.68l0 26.97c-1,0 -2.91,-0.28 -3.25,1.44 -0.01,0.05 -0.02,0.15 -0.02,0.28l0 9.45c0.01,1.7 0.23,1.38 3.06,1.38l16.48 -0c0.76,-0.1 0.77,-0.76 0.77,-1.63l15.29 0c0,1.13 0.02,1.64 1.2,1.64l7.21 -0.01c0.6,-0.08 0.6,-0.31 0.74,-0.76z"/>
  <path class="fil1" d="M4.91 36.09l15.87 0.04 -0 -10.47c-0.67,0.13 -1.35,0.09 -1.34,-0.72 0.01,-0.75 0.66,-0.8 1.35,-1.06 1.15,-0.43 2.25,-0.85 3.41,-1.29 4.45,-1.67 2.84,-1.73 6.97,-0.21 1.91,0.71 1.88,0.62 4.11,0.62l14.37 0c0,-1.65 0.18,-10.3 -0.14,-11.09 -1.01,-0.32 -9.36,-0.12 -11.17,-0.12 -3.03,0 -31.84,-0.13 -33.41,0.04l0 11.16 10.59 0c1,0 2.78,-0.35 2.76,0.84 -0.02,1.14 -1.85,0.8 -2.76,0.8l-10.56 0 -0.04 11.44z"/>
  <path class="fil2" d="M2.25 7.44c3.59,0.16 10.59,0.02 14.57,0.02l32.65 0c0.92,0 2.73,0.29 2.33,-1.1 -0.13,-0.44 -2.4,-4.28 -2.71,-4.67l-33.15 0c-1.25,0 -0.92,-0.06 -1.42,-0.82l-1.56 -0.06c-0.21,1.2 -1.26,0.88 -3.14,0.88 -1.38,0 -2.77,0 -4.15,0 -0.29,0.07 -3.18,5.21 -3.43,5.75z"/>
  <path class="fil1" d="M35.12 36.13c4.27,0 8.55,-0.02 12.82,0 2.18,0.01 1.7,-0.94 1.7,-4.86 0,-2.15 0,-4.29 0,-6.44l-13.17 -0c0.02,0.89 -0.59,0.98 -1.34,0.84l-0 10.47z"/>
  <path class="fil3" d="M1.63 47.03c3.09,0.13 6.39,-0 9.51,0.02 2.2,0.01 1.73,-1.16 1.73,-3.11 0,-1.6 0,-3.21 0,-4.81l-10.47 -0.01c-0.42,0.01 -0.37,-0.05 -0.64,0.13 -0.3,0.49 -0.1,6.62 -0.11,7.78z"/>
  <path class="fil3" d="M41.67 47.04c3.18,0 6.36,-0.01 9.54,0 2.16,0.01 1.69,-1.11 1.69,-3.11 0,-1.61 0,-3.21 0,-4.82l-11.23 0.01 -0.01 7.92z"/>
  <path class="fil4 str0" d="M2.25 7.44c-1.04,1.67 -0.91,1.38 2.67,1.38l47.61 0c0.42,0 1.1,0.06 1.5,-0.06 0.54,-0.16 -0.29,-1.22 -0.64,-1.82 -0.47,-0.82 -2.86,-5.18 -3.15,-5.25l-1.15 -0c0.3,0.39 2.58,4.23 2.71,4.67 0.41,1.4 -1.4,1.1 -2.33,1.1l-32.65 0c-3.98,0 -10.97,0.15 -14.57,-0.02z"/>
  <path class="fil5" d="M4.91 11.84c1.57,-0.17 30.38,-0.04 33.41,-0.04 1.81,0 10.15,-0.2 11.17,0.12 0.32,0.79 0.14,9.44 0.14,11.09l1.25 -0 0.11 -0c0,-0.99 0,-1.99 0,-2.98 -0,-1.05 -0.22,-1.86 0.87,-2.04l-0.06 -1.56c-0.84,-0.54 -0.81,0.21 -0.81,-2.51 0,-1 0.09,-2.52 -0.04,-3.46l-46.03 -0 -0.01 1.4z"/>
  <path class="fil1" d="M22.42 25.05l0 11.66 1.97 -0.47c0.13,-2.1 0.01,-4.58 0.01,-6.71 0,-3.87 -0.33,-3.24 3.55,-3.24 3.88,0 3.55,-0.63 3.55,3.24 0,2.13 -0.12,4.61 0.02,6.7l1.96 0.5 0.01 -11.67c-0.37,-0.21 -5.23,-2.07 -5.54,-2.07 -0.29,0 -5.17,1.86 -5.53,2.07z"/>
  <path class="fil6 str1" d="M35.12 36.13c0,1.28 -0.25,1.25 1.02,1.91 1.42,-0.61 0.12,-0.55 3.28,-0.55l11.57 -0 0.01 -12.84 -13.65 -0.01c-0.04,-0 -0.43,-0 -0.44,0 -0.54,0.08 -0.2,-0.1 -0.44,0.2l13.17 0c0,2.15 0,4.29 0,6.44 0,3.92 0.48,4.87 -1.7,4.86 -4.27,-0.02 -8.55,-0 -12.82,-0z"/>
  <path class="fil0" d="M29.41 12.14c-0.89,0.28 -0.63,1.14 -0.63,2.64 0,1.09 0,2.18 0,3.28 -0,1.27 -0.3,2.2 1.14,2.22 4.65,0.08 3.77,0.75 3.77,-6.05 0,-1.3 0.28,-2.13 -1.14,-2.15 -0.61,-0.01 -2.73,-0.07 -3.14,0.05z"/>
  <path class="fil0" d="M22.85 12.14c-0.89,0.28 -0.63,1.16 -0.63,2.64 0,1.09 0,2.18 0,3.28 -0,1.27 -0.3,2.2 1.14,2.22 4.65,0.08 3.77,0.75 3.77,-6.05 0,-1.3 0.28,-2.13 -1.14,-2.15 -0.61,-0.01 -2.73,-0.07 -3.14,0.05z"/>
  <path class="fil0" d="M37.41 26.35c-0.9,0.39 -0.61,1.6 -0.61,2.73 0,1.09 0,2.18 0,3.28 -0,1.36 -0.29,2.1 1.2,2.12 4.57,0.06 3.71,0.81 3.72,-6.16 0,-1.28 0.24,-2.03 -1.19,-2.04 -0.59,-0 -2.74,-0.09 -3.11,0.07z"/>
  <path class="fil0" d="M43.96 26.35c-0.9,0.39 -0.61,1.6 -0.61,2.73 0,1.09 0,2.18 0,3.28 -0,1.36 -0.29,2.1 1.2,2.12 0.56,0.01 2.85,0.06 3.23,-0.08 0.75,-0.28 0.48,-1.91 0.48,-2.79 0,-1.09 -0,-2.18 0,-3.28 0,-1.28 0.24,-2.03 -1.19,-2.04 -0.59,-0 -2.74,-0.09 -3.11,0.07z"/>
  <path class="fil0" d="M43.35 13.25l0 5.9c0,1.5 0.93,1.13 3.84,1.13 0.87,0 1.08,-0.26 1.08,-1.13l0 -5.9c0,-1.54 -1.05,-1.16 -3.82,-1.16 -0.85,0 -1.09,0.31 -1.09,1.16z"/>
  <path class="fil0" d="M36.8 13.25l0 5.9c0,1.5 0.93,1.13 3.83,1.13 0.88,0 1.08,-0.26 1.08,-1.13l0 -5.9c0,-1.54 -1.05,-1.16 -3.82,-1.16 -0.84,0 -1.09,0.31 -1.09,1.16z"/>
  <path class="fil0" d="M7.65 13.25l0 5.9c0,1.5 0.96,1.13 3.82,1.13 0.88,0 1.09,-0.26 1.09,-1.13l0 -5.9c0,-1.54 -1.05,-1.16 -3.82,-1.16 -0.84,0 -1.09,0.31 -1.09,1.16z"/>
  <path class="fil0" d="M14.2 13.25l0 5.9c0,1.5 0.96,1.13 3.83,1.13 0.87,0 1.08,-0.26 1.08,-1.13l0 -5.9c0,-1.54 -1.05,-1.16 -3.82,-1.16 -0.84,0 -1.09,0.31 -1.09,1.16z"/>
  <path class="fil0" d="M7.65 27.45l0 5.9c0,1.49 0.93,1.13 3.7,1.13 0.96,0 1.21,-0.18 1.21,-1.13l0 -5.9c0,-1.54 -1.04,-1.16 -3.82,-1.16 -0.84,0 -1.09,0.31 -1.09,1.16z"/>
  <path class="fil0" d="M14.2 27.45l0 5.9c0,1.49 0.93,1.13 3.7,1.13 0.96,0 1.21,-0.18 1.21,-1.13l0 -5.9c0,-1.54 -1.04,-1.16 -3.82,-1.16 -0.85,0 -1.09,0.31 -1.09,1.16z"/>
  <path class="fil7" d="M41.67 47.04l0.02 1.37c1.3,0 2.81,-0.4 3.05,0.88l1.6 0c0.15,-0.81 0.52,-0.89 1.38,-0.88l6.55 0c0.03,-1.2 0.18,-8.69 -0.1,-9.15 -0.28,-0.19 -0.22,-0.12 -0.65,-0.13 -0.19,-0.01 -0.4,0.01 -0.6,0 0,1.61 0,3.21 0,4.82 0,1.99 0.47,3.12 -1.69,3.11 -3.18,-0.01 -6.36,-0 -9.54,-0z"/>
  <path class="fil8 str2" d="M1.63 47.03l0.01 1.38 12.58 0 0.01 -9.28 -1.36 0c0,1.6 0,3.21 0,4.81 0,1.94 0.48,3.12 -1.73,3.11 -3.12,-0.02 -6.41,0.11 -9.51,-0.02z"/>
  <path class="fil5" d="M20.79 36.13l-15.87 -0.04 0 1.4 11.46 0c1.23,0 2.17,-0.19 3.04,0.35 0.3,0.19 0.04,0.08 0.34,0.2 0.21,-0.11 0.33,-0.19 0.55,-0.32 0.61,-0.38 0.47,-0.28 0.47,-1.59z"/>
  <path class="fil4 str0" d="M17.24 39.12c0,1.53 0,3.06 0,4.59 0,1.51 0.43,3.17 -1.19,3.33l0 -7.91c-0.22,0.1 -0.21,-0.15 -0.19,0.97l0.02 8.26 2.72 0.04c0.04,-1.26 0.18,-8.65 -0.1,-9.21 -0.34,-0.12 -0.81,-0.08 -1.25,-0.08z"/>
  <path class="fil2" d="M26.55 35.96l0.84 -0c0.42,-0.18 0.61,-0.11 1.11,-0.07 0,-7.61 0.62,-6.62 -2.41,-6.62l-0 6.71 0.46 -0.02z"/>
  <path class="fil4 str0" d="M37.31 47.05l0.01 1.36 2.72 -0.01 0 -9.24 -1.32 -0.04c0,1.53 0,3.07 0,4.6 0,0.65 0.06,1.69 -0.02,2.3 -0.11,0.83 -0.5,1.02 -1.4,1.04z"/>
  <path class="fil4 str0" d="M26.1 29.27c3.04,0 2.41,-0.99 2.41,6.62 -0.5,-0.04 -0.69,-0.12 -1.11,0.07l2.13 0.02c0.26,-0.1 0.29,0.14 0.27,-0.78 -0.01,-0.33 -0,-0.66 -0,-0.98l0 -6.25 -3.7 0 0 1.31z"/>
  <path class="fil2" d="M37.31 47.05c0.9,-0.02 1.29,-0.2 1.4,-1.04 0.08,-0.61 0.02,-1.64 0.02,-2.3 0,-1.53 0,-3.06 0,-4.6l-1.31 0.03c-0.3,0.67 -0.1,6.65 -0.11,7.9z"/>
  <path class="fil2" d="M17.24 39.12l-1.19 0.01 0 7.91c1.62,-0.17 1.19,-1.82 1.19,-3.33 0,-1.53 0,-3.06 0,-4.59z"/>
  <path class="fil5" d="M28.78 40.76l2.62 -0.01 0 -0.42 -0 -2.18c0,-0.53 -2.09,-0.53 -2.63,-0.55l0 3.16z"/>
  <path class="fil5" d="M24.51 40.72l2.62 0.05 0.01 -3.17c-0.44,0.02 -2.32,0.12 -2.54,0.35 -0.21,0.23 -0.09,2.28 -0.08,2.77z"/>
  <path class="fil9 str3" d="M33.04 45.4l0.01 1.37 2.62 -0.01 0 -4.32 -1.36 -0.04c0,1.54 0.39,2.9 -1.27,3z"/>
  <polygon class="fil7" points="22.87,45.4 22.87,42.4 20.37,42.41 20.37,45.4 "/>
  <polygon class="fil7" points="31.23,42.42 28.94,42.42 28.94,45.4 31.23,45.4 "/>
  <polygon class="fil7" points="26.97,42.42 24.68,42.42 24.68,45.4 26.97,45.4 "/>
  <path class="fil10 str4" d="M15.83 28.74l0.68 0.1c0.21,0.54 0.14,1.33 0.14,1.99 0.01,0.8 0.03,1.18 -0.83,1.17l-0 0.83 0.11 0 1.53 0 -0 -4.91 -1.6 0 -0.04 0.82z"/>
  <path class="fil10 str4" d="M44.99 14.54l0.68 0.12c0.22,0.52 0.15,1.33 0.15,1.98 0.01,0.81 0.03,1.16 -0.83,1.18l-0 0.82 1.53 -0 0.11 -0 -0 -4.91 -1.6 -0 -0.04 0.81z"/>
  <path class="fil10 str4" d="M15.83 14.55l0.68 0.1c0.21,0.53 0.14,1.33 0.14,1.99 0.01,0.8 0.03,1.18 -0.83,1.17l-0 0.83 0.11 0 1.53 0 -0 -4.91 -1.6 0 -0.04 0.82z"/>
  <path class="fil8 str2" d="M44.99 28.73l0.68 0.12c0.22,0.52 0.14,1.33 0.15,1.98 0.01,0.81 0.03,1.16 -0.83,1.18l-0 0.82 1.53 -0 0.11 -0 -0 -4.91 -1.6 -0 -0.04 0.81z"/>
  <path class="fil10 str4" d="M38.44 28.73l0.68 0.12c0.21,0.53 0.14,1.33 0.15,1.99 0.01,0.81 0.02,1.16 -0.83,1.18l-0 0.82 1.64 -0 -0 -4.91 -1.6 -0 -0.04 0.81z"/>
  <path class="fil10 str4" d="M9.28 28.74c1.07,0.01 0.82,0.62 0.82,1.65 0,0.94 0.23,1.63 -0.82,1.61l-0 0.83 0.11 0 1.53 0 -0 -4.91 -1.6 0 -0.04 0.82z"/>
  <path class="fil10 str4" d="M9.28 14.55c1.07,0.01 0.82,0.62 0.82,1.65 0,0.95 0.23,1.63 -0.82,1.61l-0 0.83 0.11 0 1.53 0 -0 -4.91 -1.6 0 -0.04 0.82z"/>
  <path class="fil10 str4" d="M38.44 14.54c1.09,0.05 0.83,0.62 0.83,1.66 0,0.97 0.24,1.6 -0.83,1.62l-0 0.82 1.64 -0 -0 -4.91 -1.6 -0 -0.04 0.81z"/>
  <path class="fil10 str4" d="M23.91 14.54c0.89,0.05 0.78,0.39 0.77,1.23 -0.01,0.63 0.03,1.35 -0.09,1.93l-0.68 0.13 0 0.82 1.53 0 0 -4.88 -1.53 0 -0.01 0.77z"/>
  <path class="fil10 str4" d="M30.46 14.54c0.89,0.05 0.78,0.39 0.77,1.23 -0.01,0.63 0.03,1.35 -0.08,1.93l-0.69 0.13 0 0.82 1.53 0 0 -4.88 -1.53 0 -0.01 0.77z"/>
  <path class="fil5" d="M33.04 40.76l2.62 -0.01c0.02,-1.21 -0.06,-1.12 -0.85,-1.61 -0.52,-0.33 -1.12,-0.61 -1.77,-0.77l-0.01 2.39z"/>
  <path class="fil5" d="M20.24 40.73l2.62 0.04 0.01 -2.39c-0.68,0.18 -1.23,0.43 -1.78,0.77 -0.78,0.49 -0.87,0.4 -0.85,1.58z"/>
  <path class="fil9 str3" d="M26.97 42.42l-0.01 2.98 -2.29 0 -0 -2.98c-0.22,0.1 -0.21,-0.13 -0.19,0.97l0.02 3.34 2.62 0.04 0.03 -3.82c-0.04,-0.63 0.08,-0.32 -0.19,-0.52z"/>
  <path class="fil9 str3" d="M31.23 42.42l-0 2.98 -2.29 0 0 -2.98c-0.33,0.15 -0.12,-0.04 -0.18,0.42 -0.01,0.06 0,0.45 0,0.55l0.02 3.33 2.62 0.05 0.02 -3.27c0.02,-1.23 0.05,-0.9 -0.19,-1.08z"/>
  <path class="fil9 str3" d="M22.87 45.4l-2.5 0 0 -2.99c-0.21,0.24 -0.17,0.12 -0.16,0.98l0.02 3.35 2.62 0.04 0.02 -1.37z"/>
  <path class="fil7" d="M33.04 45.4c1.66,-0.1 1.27,-1.46 1.27,-3l-1.27 0 -0.01 3z"/>
  <path class="fil11" d="M38.44 17.82c1.06,-0.02 0.83,-0.65 0.83,-1.62 -0,-1.04 0.26,-1.62 -0.83,-1.66l0 3.28z"/>
  <path class="fil11" d="M9.28 17.81c1.06,0.02 0.82,-0.66 0.82,-1.61 -0,-1.03 0.24,-1.65 -0.82,-1.65l0 3.26z"/>
  <path class="fil11" d="M9.28 32c1.05,0.02 0.82,-0.67 0.82,-1.61 -0,-1.03 0.25,-1.65 -0.82,-1.65l0 3.26z"/>
  <path class="fil11" d="M38.44 32.01c0.85,-0.02 0.83,-0.37 0.83,-1.18 -0,-0.66 0.06,-1.46 -0.15,-1.99l-0.68 -0.12 0 3.28z"/>
  <path class="fil11" d="M44.99 32.01c0.85,-0.02 0.83,-0.37 0.83,-1.18 -0.01,-0.66 0.07,-1.47 -0.15,-1.98l-0.68 -0.12 0 3.28z"/>
  <path class="fil11" d="M44.99 17.82c0.85,-0.02 0.83,-0.37 0.83,-1.18 -0.01,-0.66 0.07,-1.46 -0.15,-1.98l-0.68 -0.12 0 3.28z"/>
  <path class="fil11" d="M15.84 17.81c0.85,0.01 0.83,-0.37 0.83,-1.17 -0.01,-0.66 0.06,-1.46 -0.14,-1.99l-0.68 -0.1 0 3.26z"/>
  <path class="fil11" d="M15.84 32c0.85,0.01 0.83,-0.37 0.83,-1.17 -0.01,-0.66 0.06,-1.46 -0.14,-1.99l-0.68 -0.1 0 3.26z"/>
  <path class="fil11" d="M30.47 17.82l0.69 -0.13c0.11,-0.58 0.08,-1.29 0.08,-1.93 0.01,-0.83 0.12,-1.17 -0.77,-1.23l0 3.28z"/>
  <path class="fil11" d="M23.91 17.82l0.68 -0.13c0.12,-0.58 0.08,-1.29 0.09,-1.93 0.01,-0.84 0.12,-1.17 -0.77,-1.23l0 3.28z"/>
  <path class="fil12" d="M26.55 35.96l-0.46 0.02 0 -6.71 0 -1.31 3.7 0 0 6.25c0,0.33 -0,0.66 0,0.98 0.02,0.92 -0.01,0.68 -0.27,0.78l0.34 0.07 0.04 -8.12c-0.53,-0.13 -3.38,-0.13 -3.88,0l-0.04 8.1 0.57 -0.07z"/>
  <path class="fil13" d="M30.47 18.64l-0 -0.82 -0 -3.28 0.01 -0.77 1.53 0 0 4.88c0.24,-0.44 0.12,-4.56 0.07,-4.91 -0.5,-0.13 -1.18,-0.13 -1.67,0 -0.04,0.32 -0.17,4.46 0.07,4.91z"/>
  <path class="fil13" d="M23.92 18.64l-0 -0.82 -0 -3.28 0.01 -0.77 1.53 0 0 4.88c0.24,-0.44 0.12,-4.56 0.07,-4.91 -0.5,-0.13 -1.18,-0.13 -1.67,0 -0.04,0.32 -0.17,4.46 0.07,4.91z"/>
 </g>
</svg>
