<?xml version="1.0" encoding="UTF-8"?>
<!DOCTYPE svg PUBLIC "-//W3C//DTD SVG 1.1//EN" "http://www.w3.org/Graphics/SVG/1.1/DTD/svg11.dtd">
<!-- Creator: CorelDRAW -->
<svg xmlns="http://www.w3.org/2000/svg" xml:space="preserve" width="16mm" height="16mm" version="1.1" style="shape-rendering:geometricPrecision; text-rendering:geometricPrecision; image-rendering:optimizeQuality; fill-rule:evenodd; clip-rule:evenodd"
viewBox="0 0 237.2 237.2"
 xmlns:xlink="http://www.w3.org/1999/xlink"
 xmlns:xodm="http://www.corel.com/coreldraw/odm/2003">
 <defs>
  <style type="text/css">
   <![CDATA[
    .fil0 {fill:black}
    .fil10 {fill:#37454B}
    .fil8 {fill:#41565D}
    .fil5 {fill:#51656E}
    .fil2 {fill:#687D88}
    .fil7 {fill:#80B038}
    .fil6 {fill:#8FD7E5}
    .fil9 {fill:#98C84F}
    .fil1 {fill:#A1E6F6}
    .fil3 {fill:#A9D566}
    .fil4 {fill:#E9F5FF}
   ]]>
  </style>
 </defs>
 <g id="Camada_x0020_1">
  <metadata id="CorelCorpID_0Corel-Layer"/>
  <g id="_2279116360912">
   <path class="fil0" d="M29.8 233.96c-0.68,-3.63 -1.8,-3.73 -5.69,-3.72 -18.16,0.05 -17.16,1.1 -17.16,-10.18 0,-11.16 -0.82,-25.76 0.1,-36.57l47.75 -0.01c6.78,0.01 7.4,-0.7 9.37,5.3 0.91,2.76 3.1,8.29 3.38,10.75l-11.25 0.13c-1.65,0.76 -3.39,2 -2.22,4.75 0.9,2.1 3.09,2.12 5.68,2.1 5.23,-0.03 10.48,-0.03 15.71,-0 6.37,0.18 9.93,3.24 11.64,8 1.41,3.91 3.16,11.47 3.97,15.75l-7.04 0.01c-8.24,-0.04 -16.49,-0.01 -24.73,-0.01 -4.01,0 -8.03,0.01 -12.05,0 -4.41,-0.01 -7.5,-0.82 -8.26,3.7 0.33,2.11 1.38,2.94 2.93,3.24l6.72 0 171.88 0 6.67 0c1.69,-0.15 3.17,-0.59 5.02,-1.74 2.47,-1.54 4.73,-4.52 4.99,-8.19l0 -53.08 0 -132.5 0 -5.69c-0.1,-7.01 -1.04,-9.35 -8.34,-12.85 0.92,-3.93 1.58,-8.33 -2.46,-12.37 -0.54,-0.54 -1.72,-1.27 -2.48,-1.69 -4.26,-2.35 -2.87,0.13 -5.07,-3.26 -2.14,-3.29 -6.19,-5.44 -10.54,-5.84l-2.99 0c-4.53,0.43 -8.99,2.84 -11.66,7.88 -3.65,-1.75 -11.39,1.44 -13.1,8.21 -0.8,3.17 0.07,3.77 0.13,6.61 -8.24,0 -12.88,-0.86 -17.9,2.95 -3.94,2.99 -4.45,10.06 -6.66,14.65 -4.45,-2.36 -7.26,-2.32 -13.9,-2.32 -2.49,0 -5.91,-0.2 -8.29,0.05 -2.88,0.3 -4.24,0.66 -4.8,3.66 0.61,3.92 2.69,3.64 6.59,3.62 3.18,-0.02 6.38,-0.03 9.56,0.01 6.47,-0.05 8.26,0.12 8.22,7.03l-0.01 101.7c-2.32,-1.05 -0.74,-0.81 -3.54,-2.86 -1.35,-0.99 -2.23,-1.29 -3.57,-2.38l-8.77 -2.87c-0.63,-3.82 1.04,-12.76 -1.55,-14.69 -2.09,-1.56 -4.84,-0.36 -5.4,1.78 -1.8,6.8 2.79,12.34 -2.61,13.56 -5.27,1.19 -12.17,4.96 -14.49,9.12 -4.45,-0.79 -8.65,-3.91 -17.33,-1.09 -9.18,2.97 -8.38,7.53 -12.39,6.99 -0.54,-4.25 -0.15,-90.39 -0.15,-99.05 0,-18.87 -2.73,-17.24 16.09,-17.24l-0 37.62c-0,3.57 -0.71,8.47 3.52,8.38 4.4,-0.09 3.43,-5.73 3.43,-9.3l0 -36.49c5.3,-0.98 12.33,2.12 13.18,-3.82 -0.02,-5.24 -11.32,-3.71 -18.44,-3.71 -7.55,0 -14.25,-0.93 -20.38,2.32 -1.89,-3.93 -2.28,-9.16 -7.67,-13.18 -5.1,-3.81 -8.36,-4.42 -16.89,-4.42 0.07,-3.05 1.76,-6.54 -2.44,-11.46 -2.23,-2.61 -6.29,-4.35 -10.54,-3.36 -1.91,-3.6 -4.83,-6.31 -9.24,-7.44 -0.78,-0.2 -1.52,-0.34 -2.24,-0.44l-4.23 0c-7.11,1.03 -10.21,7.16 -10.96,7.61 -1.8,1.07 -6.99,1.38 -8.94,8.21 -0.95,3.35 -0.29,4.4 0.4,7.34 -2.3,1.1 -3.05,1.05 -5,2.88 -2.03,1.9 -2.95,4.33 -3.34,7.07l0 13.21 0 175.59 0 2.95c0.05,3.76 0.49,7.07 3.62,9.65 2.59,2.14 4.74,2.6 7.97,2.69l5.1 0 9.96 0c1.76,-0.31 2.71,-1.16 3.16,-3.24z"/>
   <path class="fil1" d="M146.39 148.8c-0.05,-17.48 -0,-34.96 -0,-52.44 0,-8.65 0,-17.3 0,-25.94 0,-7.32 1.07,-18.7 -1.09,-25.1 -3.18,-0.04 -6.38,-0.03 -9.56,-0.01 -3.9,0.02 -5.98,0.31 -6.59,-3.62l-9.24 0c-0.85,5.93 -7.88,2.83 -13.18,3.82l0 36.49c0,3.57 0.97,9.21 -3.43,9.3 -4.22,0.09 -3.52,-4.81 -3.52,-8.38l0 -37.62c-18.82,0 -16.09,-1.62 -16.09,17.24 0,8.67 -0.38,94.8 0.15,99.05 4.01,0.54 3.21,-4.01 12.39,-6.99 8.68,-2.81 12.88,0.3 17.33,1.09 2.32,-4.16 9.22,-7.93 14.49,-9.12 5.4,-1.22 0.81,-6.76 2.61,-13.56 0.56,-2.14 3.32,-3.34 5.4,-1.78 2.59,1.93 0.92,10.87 1.55,14.69l8.77 2.87z"/>
   <path class="fil2" d="M8.85 176.55c0.93,-4.66 4.86,-18.93 6.67,-22.98 3.44,-7.72 9.93,-11.02 18.3,-11.05 0,-3.21 -0.43,-4.39 0.61,-6.79 0.06,-0.14 0.15,-0.31 0.24,-0.45 1.41,-5.62 5.97,-8.83 9.03,-11.89 2.98,-2.98 7.1,-7.73 13.84,-7.97 2.1,-1.28 9.06,-0.48 12.06,-0.57l0 -61.61 -33.32 0.15c-4.05,0.93 -4.66,5.94 -10.97,7.08 -4.16,0.75 -13.66,0.23 -18.37,0.23l0 115.85 1.91 0z"/>
   <path class="fil2" d="M193.81 125.55c1.64,0.38 4.03,-1.13 6.1,-1.58 4.82,-1.05 17.76,-0.64 23.19,-0.64l0 -78.06c-19.16,0.48 -16.18,-2.67 -23.1,6.48 -1.55,2.06 -2.84,3.52 -4.75,4.98 -9.22,7.11 -22.82,2.47 -34.8,4.11l0.01 54.22c6.92,0.56 14.71,-0.18 21.63,0.08 9.42,0.35 10.15,7.84 11.71,10.41z"/>
   <path class="fil3" d="M29.8 233.96l9.19 0c0.76,-4.52 3.86,-3.72 8.26,-3.7 4.01,0.01 8.03,0 12.05,0 8.24,0 16.49,-0.03 24.73,0.01 -0.77,-4.26 -2.16,-8.95 -3.21,-13.16 -0.55,-2.19 -1.01,-4.19 -1.94,-5.97 -1.16,-2.22 -2.43,-2.89 -3.43,-4.63 -5.23,-0.03 -10.48,-0.03 -15.71,0 -2.59,0.02 -4.78,-0 -5.68,-2.1 -1.17,-2.74 0.57,-3.98 2.22,-4.75 1.36,-1.18 2.06,-0.91 4.22,-0.92l-5.46 -14.95c-0.04,-0.19 -0.17,-0.21 -0.25,-0.32l-47.75 0.01c-0.92,10.81 -0.1,25.4 -0.1,36.57 -0,11.28 -1,10.22 17.16,10.18 3.89,-0.01 5.01,0.09 5.69,3.72z"/>
   <path class="fil3" d="M221.99 230.26c2.11,-5.84 1.13,-16.77 1.13,-23.77 -7.8,0.08 -15.64,0.02 -23.44,0.01 -11.72,-0 -9.35,0.52 -12.06,11.21 -1.47,5.77 -5.15,4.29 -6.28,3.08 -1.9,-2.05 -0.12,-6.14 0.54,-8.82 1.7,-6.8 3.32,-11.13 10.39,-12.35 0.44,-0.31 0.47,-0.39 1.36,-0.67 1.93,-0.61 26.56,-0.2 29.49,-0.2l-0.03 -15.28c-9.49,-0.1 -19.02,-0.01 -28.51,-0.01 -7.94,0 -21.08,-1.75 -26.16,3.03 -4.28,4.04 -6.31,15.01 -8.03,21.14 -2.07,7.41 -4.16,15.19 -6.42,22.46l68.02 0.16z"/>
   <path class="fil1" d="M75.06 199.58c8.92,0.12 14.32,4.22 17.3,9.64 1.83,3.33 5.09,16.56 5.86,21.01 9.54,0.14 40.59,0.44 48.53,-0.07l11.11 -38.99 -85.47 -0.03 2.67 8.43z"/>
   <path class="fil4" d="M70.1 184.21c4.4,0 89.17,0.67 91.09,-0.37 0.69,-0.37 2.51,-2.5 3.29,-3.15 1.2,-1.01 2.86,-1.67 4.09,-2.78 -0.9,-5.31 -4.98,-9.05 -10.61,-9.68 -8.04,-0.9 -4.54,-4.54 -10.38,-10.02 -8.93,-8.36 -21.72,-6.56 -28.76,1.86 -5.58,6.67 -7.54,0.68 -15.03,0.43 -9.12,-0.31 -12.09,5.65 -13.89,7.25 -4.26,3.78 -9.18,-2.39 -16.16,2.36 -3.71,2.53 -7.71,8.26 -3.65,14.11z"/>
   <path class="fil2" d="M223.09 176.54l0 -39.18c-5.9,0.17 -13.16,-0.43 -18.8,0.14 -5.52,0.56 -8.56,4.92 -11.12,7.48 -3.71,3.69 -5.85,4.81 -5.86,12.52 -0.01,6.29 0.01,12.57 0.01,18.86l35.78 0.18z"/>
   <path class="fil3" d="M68.33 46.07c-0.58,-2.76 -1.81,-6.07 -2.77,-8.75 -0.56,-1.56 -0.95,-2.48 -1.78,-3.79 -1.06,-1.68 -1.88,-1.93 -2.75,-3.55l-48.54 -0.03c-3.6,0.08 -5.25,0.88 -5.52,4.34 -0.43,5.46 -0.12,13.78 0.01,19.44 3.9,0 13.81,0.49 17.03,-0.11 3.08,-0.58 4.92,-5.52 10.07,-7.03 4.16,-1.22 28.14,-0.57 34.26,-0.5z"/>
   <path class="fil3" d="M206.07 38.44c2.9,-1.93 13.11,-0.03 17.05,-0.91 0,-3.5 -0.13,-4.67 -1.04,-7.57 -4.69,0.02 -51.24,-0.36 -53.31,0.28 -2.6,0.8 -3.05,3.97 -3.96,6.71 -1.73,5.21 -4.44,10.82 -4.34,16.63 5.45,0.71 24.99,0.86 28.94,-1.28 6.93,-3.75 7.13,-12.8 16.66,-13.85z"/>
   <path class="fil5" d="M193.81 125.55l2.24 7.31c2.26,-0.63 3.64,-1.69 6.48,-2.13 2.86,-0.45 6.27,-0.27 9.2,-0.27 6.12,0 12.24,0 18.35,0l0.19 -85.17 -7.17 -0.03 0 78.06c-5.43,0 -18.37,-0.41 -23.19,0.64 -2.07,0.45 -4.46,1.96 -6.1,1.58z"/>
   <path class="fil5" d="M172.9 169.57c2.9,-3.56 -4.95,-18.02 8.02,-32.19 1.82,-1.99 5.67,-4.88 6.57,-7.26 0.07,-1.87 -0.9,-4.92 -2.13,-6.45 -1.61,-2.01 -4.03,-1.58 -6.99,-1.57 -5.61,0.02 -12.3,-0.34 -17.76,0.07l-0.16 39.28c4.22,1.35 7.2,2.42 10,5.39 0.93,0.98 1.25,2.04 2.46,2.74z"/>
   <path class="fil6" d="M146.39 148.8c1.34,1.09 2.22,1.39 3.57,2.38 2.8,2.05 1.23,1.81 3.54,2.86l0.01 -101.7c0.04,-6.9 -1.75,-7.08 -8.22,-7.03 2.16,6.4 1.09,17.78 1.09,25.1 0,8.65 0,17.3 0,25.94 0,17.48 -0.05,34.96 0,52.44z"/>
   <path class="fil5" d="M41.51 142.52c8.84,0 14.22,1.47 17.52,7.83 1.66,3.2 2.47,11.58 3.07,15.91 0.13,0.92 0.21,1.98 0.36,2.88 0.35,2.07 -0.07,1.64 1.06,2.16 0.94,-1.4 1.6,-2.57 2.57,-3.76 1.07,-1.33 2.42,-1.93 3.12,-3.15 1.17,-3.46 0.42,-35.31 0.42,-41.62l-11.47 -0.27c-4.86,-0.19 -8.66,4.99 -10.9,7.22 -4.44,4.43 -6.01,3.68 -5.76,12.79z"/>
   <path class="fil2" d="M23.5 176.54l25.82 0 -2.43 -17.72c-0.33,-2.28 -0.07,-2.05 -1.89,-2.25 -2.02,-0.22 -6.13,0.05 -8.4,0.04 -7.87,-0.02 -7.44,-0.14 -9.4,6.78 -1.24,4.36 -2.7,8.76 -3.7,13.15z"/>
   <polygon class="fil5" points="69.61,114.85 76.47,114.71 76.47,53.36 69.61,53.24 "/>
   <path class="fil7" d="M28.13 7.45c-5.96,2 -3.6,3.89 -6.63,6.2 -2.2,1.67 -7.93,0.52 -6.72,6.21 0.81,3.83 5.76,3.16 9.77,3.16 3.88,-0 22.06,0.87 24.13,-1.21 2.42,-2.43 1.13,-6.91 -3.26,-7.08 -5.85,-0.23 -5.93,-0.76 -8.56,-4.34 -1.66,-2.26 -4.66,-4.3 -8.73,-2.94z"/>
   <path class="fil7" d="M205.17 7.19c-4.97,1.03 -4.42,3.84 -6.83,5.82 -3.44,2.83 -7.86,0.54 -9.98,3.02 -2.44,2.85 -0.72,6.72 3.46,6.97l25.47 -0c4.09,-0.1 7.16,-3.47 4.26,-6.89 -2.52,-2.97 -4.08,1.05 -7.8,-5.18 -1.51,-2.53 -4.42,-4.6 -8.58,-3.74z"/>
   <path class="fil8" d="M172.9 169.57l2.72 6.9 4.75 0.04c0,-6.43 -0.67,-18.38 0.29,-24.1 1.49,-8.89 7.18,-10.41 9.65,-14.81 -0.46,-1.59 -1.76,-6.22 -2.82,-7.49 -0.9,2.39 -4.75,5.27 -6.57,7.26 -12.97,14.17 -5.11,28.63 -8.02,32.19z"/>
   <path class="fil5" d="M8.85 176.55l7.43 0c0.93,-5.11 3.43,-12.49 4.96,-17.71 2.78,-9.48 8.4,-8.37 13.3,-9.39l0.13 -14.17c-0.1,0.14 -0.18,0.31 -0.24,0.45 -1.03,2.4 -0.61,3.58 -0.61,6.79 -8.37,0.03 -14.86,3.33 -18.3,11.05 -1.81,4.05 -5.74,18.31 -6.67,22.98z"/>
   <path class="fil8" d="M69.21 164.4c2.41,-0.87 4.21,-1.92 7.44,-2.97l0.09 -39.27c-3.23,-0.23 -16.93,-0.95 -18.58,0.35l11.47 0.27c0,6.31 0.75,38.16 -0.42,41.62z"/>
   <path class="fil8" d="M63.52 171.31c-1.13,-0.53 -0.71,-0.1 -1.06,-2.16 -0.15,-0.9 -0.23,-1.97 -0.36,-2.88 -0.6,-4.34 -1.4,-12.71 -3.07,-15.91 -3.31,-6.36 -8.69,-7.83 -17.52,-7.83l-0.02 7.15c13.98,0 11.35,3.65 14.86,26.55l5.45 0.49c0.32,-2.24 0.97,-3.53 1.73,-5.4z"/>
   <polygon class="fil5" points="223.09,176.54 230.26,176.52 230.26,137.4 223.09,137.37 "/>
   <path class="fil9" d="M221.99 230.26c6.96,-0.01 8.31,-0.17 8.27,-7.41 -0.03,-5.45 -0.01,-10.9 -0.01,-16.34l-7.13 -0.01c0,7 0.97,17.93 -1.13,23.77z"/>
   <path class="fil9" d="M84.03 230.26l7.04 -0.01c-0.81,-4.28 -2.56,-11.84 -3.97,-15.75 -1.72,-4.75 -5.27,-7.82 -11.64,-8 0.99,1.74 2.26,2.41 3.43,4.63 0.93,1.78 1.39,3.78 1.94,5.97 1.05,4.2 2.44,8.89 3.21,13.16z"/>
   <path class="fil0" d="M102.53 99.97c-3.86,1.07 -2.74,4.84 -2.74,11.68 0,4.1 -1.21,11.51 4.35,10.22 3.91,-0.9 2.59,-8.2 2.59,-12.07 0,-3.84 0.93,-11.25 -4.2,-9.83z"/>
   <path class="fil9" d="M192.27 199.62l37.87 -0.06 0.12 -16.01 -7.16 -0.08 0.03 15.28c-2.93,0 -27.57,-0.41 -29.49,0.2 -0.88,0.28 -0.91,0.35 -1.36,0.67z"/>
   <path class="fil9" d="M56.29 199.67l11.25 -0.13c-0.27,-2.46 -2.47,-7.99 -3.38,-10.75 -1.97,-6 -2.59,-5.29 -9.37,-5.3 0.08,0.11 0.21,0.13 0.25,0.32l5.46 14.95c-2.15,0.01 -2.85,-0.26 -4.22,0.92z"/>
   <path class="fil9" d="M68.33 46.07l6.95 -0.02c-1.83,-8.77 -4.76,-15.75 -14.24,-16.08 0.87,1.61 1.68,1.87 2.75,3.55 0.83,1.31 1.22,2.23 1.78,3.79 0.96,2.69 2.19,5.99 2.77,8.75z"/>
   <path class="fil9" d="M206.07 38.44l24.1 -0.08c0.61,-7.83 -0.65,-8.38 -8.08,-8.41 0.91,2.9 1.04,4.07 1.04,7.57 -3.94,0.89 -14.16,-1.01 -17.05,0.91z"/>
   <path class="fil10" d="M69.61 53.24l6.86 0.12 -0 61.35 -6.86 0.14c-3,0.09 -9.96,-0.71 -12.06,0.57l19.15 -0.19 0.21 -62.23c-5.71,-0.69 -14.52,-0.23 -20.38,-0.23 -3.33,0 -18.72,-0.65 -20.23,0.62l33.32 -0.15z"/>
  </g>
 </g>
</svg>
