<?xml version="1.0" encoding="UTF-8"?>
<!DOCTYPE svg PUBLIC "-//W3C//DTD SVG 1.1//EN" "http://www.w3.org/Graphics/SVG/1.1/DTD/svg11.dtd">
<!-- Creator: CorelDRAW -->
<svg xmlns="http://www.w3.org/2000/svg" xml:space="preserve" width="135.685mm" height="135.585mm" version="1.1" style="shape-rendering:geometricPrecision; text-rendering:geometricPrecision; image-rendering:optimizeQuality; fill-rule:evenodd; clip-rule:evenodd"
viewBox="0 0 1596.95 1595.77"
 xmlns:xlink="http://www.w3.org/1999/xlink"
 xmlns:xodm="http://www.corel.com/coreldraw/odm/2003">
 <defs>
  <style type="text/css">
   <![CDATA[
    .str3 {stroke:#00CC89;stroke-width:2.35;stroke-miterlimit:22.9256}
    .str2 {stroke:#C3F738;stroke-width:2.35;stroke-miterlimit:22.9256}
    .str1 {stroke:#DFB99F;stroke-width:2.35;stroke-miterlimit:22.9256}
    .str0 {stroke:#FAE9D1;stroke-width:2.35;stroke-miterlimit:22.9256}
    .fil3 {fill:black}
    .fil8 {fill:#00A465}
    .fil2 {fill:#00ACEA}
    .fil7 {fill:#00CC89}
    .fil1 {fill:#54C8F2}
    .fil6 {fill:#AAE600}
    .fil5 {fill:#C3F738}
    .fil4 {fill:#DFB99F}
    .fil0 {fill:#FAE9D1}
   ]]>
  </style>
 </defs>
 <g id="Camada_x0020_1">
  <metadata id="CorelCorpID_0Corel-Layer"/>
  <path class="fil0 str0" d="M1595.77 1248.1l0 -1246.92 -635.43 0c0,240.22 -29.9,452.76 127.66,638.51l28.17 31.01c21.63,23.79 47.95,44.5 59.09,56.21l244.56 225.79c40.57,45.43 69.16,81.18 100.86,135.75 14.07,24.22 28.72,50.55 40.71,77.64 9.67,21.85 22.96,64.53 34.38,82z"/>
  <path class="fil0 str0" d="M53.78 561.16c11.61,-47.18 72.93,-97.05 111.81,-136.12 14.14,7.24 48.52,45.64 62.36,59.47 17.57,17.56 42.71,38.83 51.75,72.77 13.3,49.97 -8.3,103.75 -47.67,129.48 -48.92,31.98 -41.39,-19.71 -41.39,111.21l-46.69 0.57 -0.08 -93.49c-18.23,-9.5 -31.4,-5.65 -57.88,-31.87 -14.28,-14.14 -26.33,-32.65 -32.09,-58.64 -7.97,10.65 -3.92,139.79 -3.92,152.79 0,29.73 -2.88,446.31 1.7,459.65l2.34 4.43c17.91,-50.72 45.28,-99.23 70.84,-141.11 13.8,-22.62 28.8,-41.51 44,-61.8 33.86,-45.19 49.73,-53.93 76.6,-85.36 8.7,-10.17 17.87,-15.81 28.24,-24.81l138.95 -125.65c11.22,-8.94 18.73,-17.81 29.52,-26.54 80,-64.71 143.86,-142.43 186.43,-240.31 56.33,-129.51 50.26,-228.71 50.26,-379.09l22.73 -0 0.32 -49.02 -23.04 0 0 -96.55 -628.9 0 -0.02 526.36c-0.04,5.52 -0.51,13.76 -0.21,18.92l4.03 14.7z"/>
  <path class="fil1" d="M383.52 960.55c31.56,-13.19 53.5,-47.17 103.51,-47.21 44.15,-0.03 75.93,28.35 90.22,56.58 21.09,41.67 7.91,87.03 -15.89,114.62 -7.43,8.62 -55.65,42.12 -80.07,66.34 -194.34,192.65 -63.82,364.14 -197.69,392.4 13.78,6.14 133.49,3.33 166.22,2.88 4.22,-0.06 7.91,-0.15 12.07,-0.79l7.88 -2.24c-102.77,-22.19 -68.5,-162.84 -29.18,-236.73 41.34,-77.7 99.1,-111.23 182.08,-157.4 39.01,-21.7 76.34,-48.57 122.68,-10.82 40.21,32.76 29.77,82.23 29.77,139.91 0,56.03 0.35,112.17 0.06,168.19 -0.32,60 -26.16,81.83 -71.54,98.2l189.69 -0.01c-34.79,-12.45 -57.1,-26.5 -67.82,-63.07 -5.48,-18.67 -5,-96.98 -3.13,-120.79l22.84 -0.5 0 -47.78 -23.36 0c0,-69.11 -22.32,-183.66 73.9,-192.19 34.87,-3.09 68.99,23.79 94.4,37.92 26.2,14.57 58.99,32.4 81.35,49.47 107.66,82.19 191.01,297.4 53.16,336.77 23.86,3.99 174.4,5.33 188.68,-1.02 -90.55,-19.16 -67.24,-120.47 -82.56,-186.61 -23.69,-102.31 -84.75,-188.67 -160.33,-244.63 -25.12,-18.6 -51.48,-36.01 -59.66,-74.33 -16.53,-77.44 61.35,-148.84 138.13,-116.34 44.51,18.84 118.99,83.68 150.99,116.93 45.71,47.49 84.25,95.32 115.71,155.25 23.28,44.34 67.8,142.55 68.65,199.73 1.14,76.69 -57.95,137.16 -122.8,150.09 18.43,7.94 155.25,2.59 187.61,2.59 -0.02,-202.48 -58.59,-379.81 -177.77,-513.73 -24.79,-27.85 -42.52,-48.19 -69.4,-70.74 -37.57,-31.52 -114.55,-106.7 -147.57,-132.69l-72.81 -64.3c-237.8,-230.38 -210.14,-441.48 -210.14,-763.34l-99.41 0c0,214.04 19.9,429 -71.65,605.66 -34.28,66.15 -88.16,146.1 -144.93,194.54l-88.74 79.56c-16.64,16.46 -26.48,24.27 -43.18,40.76 -5.55,5.48 -39.96,31.35 -39.95,38.86z"/>
  <path class="fil2" d="M701.93 97.72l-0.32 49.02 23.99 0.8c-0.04,186.72 2.38,301.74 -79.51,448.75 -36.04,64.69 -90.22,135.46 -147.77,182.36l-123.4 110.22c-6.78,5.72 -10.57,10.96 -17.33,16.79l-69.36 61.53c-50.61,42.38 -113.15,125.16 -147.66,188.73 -79.4,146.26 -92.68,252.4 -92.68,439.86l1501.19 0 -0 -49.8c-32.36,0 -169.19,5.35 -187.61,-2.59 -17.14,3.12 -31.27,3.69 -48.13,-0.09 -14.27,6.35 -164.82,5.01 -188.68,1.02 -56.22,6.21 -173.38,4.08 -231.33,0.17l-189.69 0.01c-37.49,2.48 -206.06,5.7 -233.87,-1.35l-7.88 2.24c-4.16,0.64 -7.85,0.73 -12.07,0.79 -32.73,0.45 -152.44,3.26 -166.22,-2.88l-45.59 0.26c-14.85,6.08 -115.63,2.42 -140.6,2.42 0,-44.2 1.78,-122.07 15.11,-160.93l3.53 25.63c-7.73,-113.5 83.4,-264.54 151.51,-339.63 39.67,-43.73 44.18,-50.07 90.62,-89.96 6.71,-5.76 20.02,-13.72 25.35,-20.52 -0.01,-7.51 34.41,-33.38 39.95,-38.86 16.7,-16.48 26.54,-24.29 43.18,-40.76l88.74 -79.56c56.77,-48.44 110.65,-128.4 144.93,-194.54 91.55,-176.66 71.65,-391.62 71.65,-605.66l-46.38 0 0.02 95.92 -23.68 0.63z"/>
  <path class="fil3" d="M1313.32 1543.29c16.87,3.77 31,3.2 48.13,0.09 64.85,-12.93 123.94,-73.4 122.8,-150.09 -0.85,-57.17 -45.36,-155.38 -68.65,-199.73 -31.46,-59.92 -70,-107.76 -115.71,-155.25 -32,-33.25 -106.48,-98.08 -150.99,-116.93 -76.78,-32.51 -154.66,38.9 -138.13,116.34 8.18,38.32 34.54,55.73 59.66,74.33 75.58,55.96 136.65,142.31 160.33,244.63 15.31,66.15 -7.99,167.46 82.56,186.61z"/>
  <path class="fil3" d="M383.52 960.55c-5.33,6.8 -18.64,14.75 -25.35,20.52 -46.44,39.89 -50.96,46.23 -90.62,89.96 -68.11,75.09 -159.24,226.13 -151.51,339.63 7.28,72.51 54.79,120.21 121.96,132.88l45.59 -0.26c133.87,-28.26 3.35,-199.76 197.69,-392.4 24.43,-24.21 72.64,-57.72 80.07,-66.34 23.8,-27.6 36.98,-72.95 15.89,-114.62 -14.28,-28.23 -46.07,-56.61 -90.22,-56.58 -50.01,0.04 -71.95,34.02 -103.51,47.21z"/>
  <path class="fil3" d="M469.76 1543.14c27.8,7.06 196.38,3.83 233.87,1.35 45.38,-16.37 71.22,-38.2 71.54,-98.2 0.3,-56.02 -0.06,-112.16 -0.06,-168.19 0,-57.67 10.44,-107.14 -29.77,-139.91 -46.33,-37.75 -83.66,-10.89 -122.68,10.82 -82.99,46.17 -140.74,79.7 -182.08,157.4 -39.32,73.89 -73.59,214.54 29.18,236.73z"/>
  <path class="fil3" d="M1549.07 1545.97l0 49.8 46.7 0 0 -135.95c-5.31,-12.45 -13.91,-92.72 -18.89,-116.1 -20.66,-96.81 -68.36,-204.26 -122.19,-279.62 -30.1,-42.14 -87.6,-110.75 -126.14,-141.69l-70.98 -62.99c-23.97,-22.95 -44.39,-39.69 -68.18,-62.48l-36.27 -32.27c-12.34,-10.18 -22.48,-20.43 -34.72,-30.72 -13.41,-11.27 -23.21,-20.47 -35.01,-33.47 -112.01,-123.41 -165.38,-259 -165.32,-434.57 0.03,-88.24 0.01,-176.48 0.01,-264.73l-46.7 0c0,321.86 -27.65,532.96 210.14,763.34l72.81 64.3c33.02,25.99 110,101.17 147.57,132.69 26.88,22.55 44.61,42.88 69.4,70.74 119.18,133.93 177.75,311.25 177.77,513.73z"/>
  <path class="fil3" d="M777.47 732.45c-37.16,11.61 -51.66,50.16 -76.17,93.42 -13.49,23.82 -54.51,89.9 -61.19,110.11 -16.97,51.37 4.27,99.09 33.59,121.25 39.38,29.76 95.09,21.53 149.68,21.54 64.28,0.02 92.88,-6.66 120.84,-47.34 33.83,-49.23 18.85,-88.49 -4.16,-128.44 -20.15,-34.98 -41.2,-70.64 -61.56,-106.69 -19.95,-35.32 -41.77,-82.36 -101.03,-63.84z"/>
  <path class="fil3" d="M54.03 1231.41c-12.69,35.43 -23.78,67.81 -32.88,107.26 -5.64,24.42 -14.71,108.68 -19.97,121.07l0 136.03 46.7 0c0,-187.46 13.28,-293.6 92.68,-439.86 34.51,-63.57 97.04,-146.35 147.66,-188.73l69.36 -61.53c6.75,-5.83 10.54,-11.07 17.33,-16.79l123.4 -110.22c57.55,-46.89 111.73,-117.66 147.77,-182.36 81.9,-147.01 79.48,-262.03 79.51,-448.75l-23.99 -0.8 -22.73 0c0,150.38 6.07,249.58 -50.26,379.09 -42.57,97.87 -106.43,175.6 -186.43,240.31 -10.79,8.72 -18.3,17.59 -29.52,26.54l-138.95 125.65c-10.36,9 -19.54,14.64 -28.24,24.81 -26.87,31.42 -42.74,40.17 -76.6,85.36 -15.21,20.3 -30.2,39.18 -44,61.8 -25.56,41.89 -52.93,90.4 -70.84,141.11z"/>
  <path class="fil4 str1" d="M688.92 1167.69c-24.97,7.11 -76.66,41.02 -99.37,54.11 -67.2,38.75 -113.84,94.01 -133.43,171.66 -33.31,132.07 29.06,105.72 189.75,105.78 101.75,0.03 82.7,-12.96 82.7,-221.14 0,-27.66 13.72,-125.61 -39.64,-110.41z"/>
  <path class="fil3" d="M399.72 399.83l1.27 117.23 46.63 1.26 0 -118.08c17.89,-8.26 26.7,-8.2 44.07,-20.62 53.9,-38.58 49.35,-85.76 49.37,-151.08 0.02,-53.67 1.99,-71.41 -25.36,-109.6 -38.62,-53.94 -132.43,-63.18 -182.67,-0.85 -23.09,28.65 -25.55,62.17 -25.53,107.33 0.03,57.52 -7.06,111.02 45.92,152.22 13.53,10.52 28.23,13.65 46.3,22.19z"/>
  <path class="fil3" d="M1148.86 402.94l0 113.67 46.71 1.28 0.12 -118.06c43.77,-20.05 55.43,-18.94 76.63,-55.66 21.92,-37.96 16.65,-72.27 16.68,-118.74 0.03,-49.83 -1.42,-73.09 -25.34,-107.07 -40.73,-57.87 -141.44,-56.53 -181.64,-1.87 -23.96,32.58 -26.62,59.03 -26.6,108.94 0.03,54.88 -6.09,116.67 47.68,153.19 10.08,6.85 39.84,17.51 45.76,24.33z"/>
  <path class="fil4 str1" d="M1595.77 1459.82l0 -211.72c-11.42,-17.46 -24.71,-60.14 -34.38,-82 -11.99,-27.1 -26.64,-53.43 -40.71,-77.64 -31.7,-54.58 -60.28,-90.32 -100.86,-135.75l-244.56 -225.79c-11.14,-11.71 -37.46,-32.42 -59.09,-56.21l-28.17 -31.01c-157.57,-185.75 -127.66,-398.29 -127.66,-638.51l-42.27 0c0,88.24 0.02,176.48 -0.01,264.73 -0.06,175.57 53.31,311.16 165.32,434.57 11.8,13 21.6,22.2 35.01,33.47 12.24,10.29 22.39,20.54 34.72,30.72l36.27 32.27c23.8,22.79 44.22,39.53 68.18,62.48l70.98 62.99c38.54,30.94 96.04,99.55 126.14,141.69 53.83,75.36 101.53,182.81 122.19,279.62 4.99,23.38 13.59,103.65 18.89,116.1z"/>
  <path class="fil0 str0" d="M1.18 1459.75c5.26,-12.4 14.33,-96.65 19.97,-121.07 9.1,-39.45 20.19,-71.83 32.88,-107.26l-2.34 -4.43c-4.58,-13.33 -1.7,-429.91 -1.7,-459.65 0,-13 -4.06,-142.14 3.92,-152.79 -3.45,-20.07 -3.56,-33.1 -0.12,-53.38l-4.03 -14.7c-0.3,-5.16 0.17,-13.4 0.21,-18.92l0.02 -526.36 -48.81 0 0 1458.57z"/>
  <path class="fil3" d="M845.2 1312.35l23.35 -1.55c0,-31.67 0.05,-63.35 -0.09,-95.02 -0.15,-34.04 10.92,-55.14 46.61,-47.12 55.13,32.13 117.69,61.66 156.14,101.46 42.26,43.75 74.16,98.05 77.53,183.29 -1.56,45.58 -30.51,45.91 -73.07,45.84 -38.41,-0.06 -76.82,-0 -115.24,-0 -123.24,0 -83.49,-22.68 -92.38,-138.63l-22.85 -0.49 -22.84 0.5c-1.88,23.81 -2.35,102.12 3.13,120.79 10.73,36.57 33.03,50.62 67.82,63.07 57.95,3.91 175.11,6.04 231.33,-0.17 137.85,-39.37 54.5,-254.58 -53.16,-336.77 -22.36,-17.07 -55.14,-34.9 -81.35,-49.47 -25.41,-14.13 -59.53,-41 -94.4,-37.92 -96.22,8.53 -73.9,123.08 -73.9,192.19l23.36 -0z"/>
  <path class="fil0 str0" d="M1372.66 1490.55c22.77,-7.21 48.25,-33.78 57.28,-57.48 26.43,-69.39 -45.62,-203.79 -78.36,-256.46 -43.88,-70.59 -59.37,-76.11 -106.01,-127.54l-63.66 -51.6c-17.24,-12.73 -49.15,-40.71 -78.56,-36.41 -0.46,0.78 -1.19,0.98 -1.41,2.32l-5.82 18.74c-6.88,82.02 82.7,72.2 166.67,211.66 104.43,173.45 29.85,274.08 109.86,296.77z"/>
  <path class="fil3" d="M1405.85 708.16l0 90.27 46.69 0.04c0,-133.12 -7.8,-78.98 39.24,-110.23 40.5,-26.91 63.16,-77.66 50.44,-128.89 -12.84,-51.72 -82.88,-101.39 -111,-134.4 -13.86,6.29 -49.17,45.86 -62.54,59.23 -18.11,18.11 -42.33,37.67 -51.93,72.77 -9.41,34.4 -1.75,73.28 16.79,98.91 33.71,46.61 63.32,37.69 72.32,52.31z"/>
  <path class="fil3" d="M53.78 561.16c-3.44,20.28 -3.32,33.31 0.12,53.38 5.76,25.99 17.81,44.49 32.09,58.64 26.48,26.22 39.66,22.37 57.88,31.87l0.08 93.49 46.69 -0.57c0,-130.92 -7.53,-79.23 41.39,-111.21 39.37,-25.73 60.97,-79.51 47.67,-129.48 -9.04,-33.94 -34.18,-55.21 -51.75,-72.77 -13.84,-13.83 -48.22,-52.23 -62.36,-59.47 -38.88,39.07 -100.2,88.94 -111.81,136.12z"/>
  <path class="fil0 str0" d="M1148.73 1453.41c-3.37,-85.24 -35.27,-139.54 -77.53,-183.29 -38.45,-39.8 -101.01,-69.33 -156.14,-101.46l-0.77 283.91 234.44 0.84z"/>
  <path class="fil0 str0" d="M307.17 1461.06c6.97,-61.7 4.84,-95.66 24.74,-154.33 76.03,-224.09 212.16,-222.51 209.13,-293.36 -0.43,-9.95 -3.44,-27.78 -13.42,-31.59 -22.84,-2.02 -120.53,78.2 -131.39,90.29 -40.09,44.66 -65.81,62.29 -102.6,121.67 -29.74,48 -54.27,89.89 -74.58,149.65 -11.19,32.93 -19.64,61.73 5.07,88.62 18.74,20.38 46.7,29.9 83.05,29.04z"/>
  <path class="fil0 str0" d="M501.45 1405.86l-2.7 50.25c0.44,0.73 25.88,-4.04 26,-2.76l19.87 -0.75c-0.02,8.36 0,-8.39 0,0l40.56 0 0 0 52.87 0c0,0 0,0 0,0l87.05 0 0.14 -254.63 -134.6 77.83c-36.4,24.27 -77,72.38 -89.18,130.07z"/>
  <path class="fil4 str1" d="M307.17 1461.06c-36.35,0.86 -64.31,-8.66 -83.05,-29.04 -24.71,-26.88 -16.26,-55.69 -5.07,-88.62 20.31,-59.76 44.85,-101.65 74.58,-149.65 36.79,-59.39 62.52,-77.01 102.6,-121.67 10.85,-12.09 108.55,-92.32 131.39,-90.29 -34.08,-50.47 -93.37,-0.36 -133.66,31.91 -69.46,55.63 -116.61,107.55 -162.85,185.96 -21.49,36.44 -76.34,153.8 -70.95,206.1 8.73,84.71 130.18,131.96 147.01,55.31z"/>
  <path class="fil4 str1" d="M845.2 1312.35l0 47.78 22.85 0.49c8.89,115.95 -30.87,138.63 92.38,138.63 38.41,-0 76.83,-0.06 115.24,0 42.56,0.07 71.51,-0.26 73.07,-45.84l-234.44 -0.84 0.77 -283.91c-35.69,-8.02 -46.76,13.08 -46.61,47.12 0.14,31.67 0.09,63.34 0.09,95.02l-23.35 1.55z"/>
  <path class="fil4 str1" d="M1372.66 1490.55c-80.01,-22.69 -5.43,-123.32 -109.86,-296.77 -83.97,-139.47 -173.55,-129.64 -166.67,-211.66l5.82 -18.74c0.21,-1.34 0.94,-1.54 1.41,-2.32 -30.31,5.69 -54.36,29.77 -46.28,67.4 5.66,26.34 36.57,41.95 55.33,57.2 86.55,70.35 147.65,168.68 168.99,285.7 4.34,23.8 5.51,86.23 11.21,100.81 10.91,27.91 52.4,33.92 80.06,18.37z"/>
  <path class="fil0 str0" d="M914.88 985.79c6.99,-35.07 -21.15,-70.79 -36.22,-96.23 -17.53,-29.59 -32.8,-59.91 -51.77,-88.31 -0.66,0.43 -1.61,0.41 -1.87,1.45 -0.25,1.03 -1.46,1.15 -1.8,1.51 -2.25,2.39 -0.85,0.09 -4.46,5.23 -0.75,1.06 -5.11,9 -6.79,11.93l-39.44 66.42c-8.97,15.26 -16.36,27.28 -25.65,42.8 -39.88,66.63 -23.88,56.29 70.27,56.29 30.24,0 68.47,2.06 97.71,-1.11z"/>
  <path class="fil4 str1" d="M914.88 985.79c-29.24,3.16 -67.47,1.11 -97.71,1.11 -94.15,0 -110.14,10.34 -70.27,-56.29 9.29,-15.52 16.68,-27.55 25.65,-42.8l39.44 -66.42c1.68,-2.93 6.04,-10.86 6.79,-11.93 3.61,-5.14 2.21,-2.85 4.46,-5.23 0.34,-0.36 1.54,-0.47 1.8,-1.51 0.26,-1.04 1.2,-1.03 1.87,-1.45 -30.33,-73.26 -69.43,21.48 -82.21,43.1 -41.45,70.09 -96.17,130.89 -39.88,175.55 20.88,16.57 49.25,12.16 78.11,12.16 65.81,-0.01 111.29,12.51 131.97,-46.28z"/>
  <path class="fil5 str2" d="M400.93 238.8l46.71 -1.05 0 111.3c18.55,-2.54 35.8,-23.2 42.13,-40.05 7.93,-21.09 4.59,-56.56 4.6,-80.47 0.02,-59.7 -7.39,-99.43 -64.96,-107.08 -31.21,43.89 -29.1,49.03 -28.49,117.35z"/>
  <path class="fil5 str2" d="M1148.86 237.88l46.72 0.48 0.08 111.02c48.37,-13 46.61,-64.9 46.63,-120.85 0.02,-61.38 -5.86,-99.07 -65.3,-107.13 -30.46,45.57 -28.86,46.24 -28.13,116.48z"/>
  <path class="fil6" d="M400.93 238.8c-0.62,-68.33 -2.72,-73.47 28.49,-117.35 -67.3,-2.04 -75.29,49.65 -75.22,97.74 0.09,59.92 -6.75,115.4 46.2,130.29l0.53 -110.67z"/>
  <path class="fil6" d="M1148.86 237.88c-0.73,-70.24 -2.34,-70.91 28.13,-116.48 -28.8,-0.62 -48.98,11.64 -60.21,26.79 -21.56,29.07 -16.79,140.48 -10.72,159.07 5.84,17.89 24.39,40.22 42.81,41.35l-0 -110.72z"/>
  <path class="fil7 str3" d="M1391.43 530.69c-1.67,24.71 3.31,36.4 11.65,56.21l48.66 3.27 1.69 64c28.2,-11.65 56.78,-45.06 41.89,-88.33 -8.49,-24.66 -49.59,-58.09 -64.99,-74.9 -10.17,6.37 -34.44,30.02 -38.9,39.76z"/>
  <path class="fil7 str3" d="M128.13 529.69c-3.21,23.81 6.61,40.7 12.75,58.15 14.08,0.61 38.73,-3.54 49.1,3.06l1.73 63.08c28.29,-12.44 56.22,-42.26 41.78,-87.72 -6.23,-19.62 -51.14,-63.35 -66.96,-75.21l-38.4 38.65z"/>
  <path class="fil1" d="M238 1543.55c-67.17,-12.67 -114.68,-60.38 -121.96,-132.88l-3.53 -25.63c-13.33,38.86 -15.11,116.74 -15.11,160.93 24.97,0 125.75,3.66 140.6,-2.42z"/>
  <polygon class="fil3" points="701.93,97.72 725.61,97.1 725.58,1.18 678.88,1.18 678.88,97.72 "/>
  <path class="fil8" d="M189.98 590.89c-10.37,-6.6 -35.02,-2.45 -49.1,-3.06 -6.14,-17.45 -15.96,-34.34 -12.75,-58.15 -15.47,11.94 -34.23,35.14 -29.85,69.01 3.44,26.64 22.33,49.81 45.31,55.66l0.42 -64.18 45.96 0.72z"/>
  <path class="fil8" d="M1451.74 590.17l-48.66 -3.27c-8.34,-19.8 -13.32,-31.5 -11.65,-56.21 -44.07,23.8 -39.66,108.1 13.85,123.97l0.65 -64.47 45.81 -0.02z"/>
 </g>
</svg>
