<?xml version="1.0" encoding="UTF-8"?>
<!DOCTYPE svg PUBLIC "-//W3C//DTD SVG 1.1//EN" "http://www.w3.org/Graphics/SVG/1.1/DTD/svg11.dtd">
<!-- Creator: CorelDRAW -->
<svg xmlns="http://www.w3.org/2000/svg" xml:space="preserve" width="122.571mm" height="135.45mm" version="1.1" style="shape-rendering:geometricPrecision; text-rendering:geometricPrecision; image-rendering:optimizeQuality; fill-rule:evenodd; clip-rule:evenodd"
viewBox="0 0 2104 2325.08"
 xmlns:xlink="http://www.w3.org/1999/xlink"
 xmlns:xodm="http://www.corel.com/coreldraw/odm/2003">
 <defs>
  <style type="text/css">
   <![CDATA[
    .str0 {stroke:#D6D5D8;stroke-width:3.43;stroke-miterlimit:22.9256}
    .str1 {stroke:#FEE997;stroke-width:3.43;stroke-miterlimit:22.9256}
    .fil1 {fill:black}
    .fil11 {fill:#3B3747}
    .fil4 {fill:#69637E}
    .fil10 {fill:#7F484F}
    .fil6 {fill:#C5C4C9}
    .fil3 {fill:#D6D5D8}
    .fil2 {fill:#EAEAEA}
    .fil9 {fill:#F9D888}
    .fil5 {fill:#FE737D}
    .fil0 {fill:#FE909D}
    .fil8 {fill:#FEE997}
    .fil7 {fill:#FEE997}
   ]]>
  </style>
 </defs>
 <g id="Camada_x0020_1">
  <metadata id="CorelCorpID_0Corel-Layer"/>
  <g id="_2358821277488">
   <path class="fil0" d="M326.96 1732.35c-3.79,-57.48 -0.62,-125.21 -0.71,-183.87 -0.23,-147.76 102.5,-147.12 221.01,-140.41 137.21,7.77 111.33,160.75 111.33,249.46 0,64.76 4.44,106.5 -33.03,146.43 -37.65,40.13 -80.62,35.67 -146.46,35.81 -28.49,0.06 -57.95,0.7 -81.82,-9.57 -24.07,-10.35 -40.75,-32.46 -50.13,-36.47 -5.52,3.8 -5.39,-2.81 1.4,16.07l24.79 62.38c10.87,25.9 26.81,55.3 35.25,80.34l378.57 0.56c0,-25.79 -6.29,-390.67 4.84,-415.94 2.88,-54.7 41.74,-93.82 77.08,-111.94 49.76,-25.51 118.08,-17.42 177.66,-17.42 56.18,0 134.73,-7.57 180.73,14.38 35.81,17.08 80.74,59.39 82.13,113.11 12.54,20.26 5.8,362.67 5.8,417.79l589.61 0 0.36 -590.71c0,-38.62 -8.41,-172.03 4.38,-195.66 4.55,-20.66 11.58,-23.27 31.59,-26.73l0 -68.68c-33.13,-4.55 -34.02,-18.45 -34.08,-53.95 -0.09,-60.48 4.9,-195.93 -6.47,-241.04 -17.62,-69.86 -94.71,-159.58 -179.49,-152.3 -16.11,4.45 -1262.2,8.29 -1303.62,0.77 -34.81,60.3 -73.31,164.83 -95.69,240 -58.09,195.14 -76.35,391.99 -54.51,596.46 5.09,47.68 35.73,248.61 59.46,271.15z"/>
   <path class="fil1" d="M1909.77 1166.69l-2.11 788.64c-29.61,6.2 -574.11,5.31 -596.52,-0.6l-1.52 -419.45c-1.4,-53.72 -46.33,-96.02 -82.13,-113.11 -46,-21.95 -124.55,-14.38 -180.73,-14.38 -59.58,0 -127.91,-8.09 -177.66,17.42 -35.33,18.11 -74.2,57.23 -77.08,111.94l-2.09 417.58c-18.68,5.29 -565.54,6.12 -596.63,0.38l-0.13 -303.2c-4,-17.1 -13.64,-23.44 -31.94,-26.63 -50.81,3.2 -36.33,64.51 -36.33,150.32 0,62.06 0,124.12 0,186.19 -30.27,14.52 -36.53,13.16 -62.96,36.95 -62.24,56.01 -66.33,128.54 -59.53,221.78 5.08,69.76 50.49,95.88 107.16,104.56l174.28 0 1698.77 0c14.63,-0.28 23.67,-0.6 25.9,-0.97 130.37,-21.41 96.87,-226.69 73.83,-271.69 -8.52,-16.63 -27.12,-43.65 -40.88,-54.49 -37.36,-29.42 -31.08,-20.46 -63.76,-36.14l0.01 -749.31c0.19,-42.45 4.86,-69.58 -36.34,-72.51 -20.02,3.46 -27.04,6.07 -31.59,26.73z"/>
   <path class="fil1" d="M161.23 1556.59c27.57,-4.15 33,-13.52 34.06,-44.1l-0.17 -236.42c0,-104.45 0,-208.89 0,-313.34 0,-104.53 -10.69,-193.74 45.94,-265.38 9.79,-12.39 28.34,-29.47 39.58,-37.51 63.67,-45.52 115.95,-40.68 193.94,-40.66 125.25,0.02 1228.43,-8.22 1246.76,4.81 84.78,-7.28 161.87,82.44 179.49,152.3 11.38,45.11 6.38,180.57 6.47,241.04 0.05,35.51 0.94,49.4 34.08,53.95 51.1,-2.22 36.33,-67.27 36.33,-122.18 0,-110.08 11.24,-183.18 -48.07,-274.35 -14.85,-22.83 -57.45,-72.86 -83.63,-79.85 0,-115.04 -0.03,-230.09 0,-345.13 0.03,-101.37 -23.88,-181.19 -120.95,-228.72 -33.16,-16.24 -57.6,-20.22 -90.56,-21.04l-60.97 0 -1039.93 0 -4.67 0c-97.71,0.02 -177.35,1.39 -241.57,103.43 -27.2,43.22 -30.79,73.57 -30.78,141.79 0.03,116.56 0,233.11 0,349.67 -161.05,85.22 -131.69,286.8 -131.69,431.41l0 422.33c0,49.51 -11.67,108.53 36.33,107.96z"/>
   <path class="fil2" d="M325.48 562.33c108.25,-20.44 239.15,-11 353.44,-11l740.21 0c114.91,0 249.48,-9.45 357.98,11 6,-94.85 0.65,-206.73 0.76,-303.48 0.06,-55.86 1.15,-83.28 -25.78,-123.95 -17.74,-26.8 -48.47,-53.29 -91.23,-62.91 -47.33,-10.65 -797.88,-3.91 -913.83,-3.91 -71.18,0 -241.84,-8.61 -301.73,3.12 -42.67,8.36 -73.82,34.49 -91.07,58.34 -29.1,40.25 -29.61,67.86 -29.53,124.76 0.14,98.23 -5.32,211.74 0.77,308.03z"/>
   <path class="fil3 str0" d="M604.87 2257.02l1213.88 -0.03c35.72,0 170.56,6.83 192.82,-6.93 28.62,-17.69 24.95,-134.79 6.9,-170.07 -27.55,-53.86 -71.08,-56.8 -145.23,-56.76l-1421.6 -0.06c6.14,19.79 23.83,46.23 36.49,65.72l116.74 168.14z"/>
   <path class="fil4" d="M861.51 1540.53l-1.47 412.04 379.72 0 1.28 -411.94c-1.73,-31.57 -31.86,-59.06 -63.42,-63.64 -31.97,-4.64 -91.48,-1.16 -126.32,-1.16 -75.44,0 -182.17,-16.87 -189.78,64.69z"/>
   <path class="fil5" d="M161.23 1556.59l0 68.68c18.3,3.19 27.93,9.53 31.94,26.63 13.8,27.59 4.34,250.06 4.34,300.86l211.1 -0.23c-8.44,-25.04 -24.37,-54.43 -35.25,-80.34l-24.79 -62.38c-6.79,-18.88 -6.92,-12.28 -1.4,-16.07 -8.7,-23.15 -15.99,-31.44 -20.2,-61.38 -23.73,-22.54 -54.36,-223.46 -59.46,-271.15 -21.84,-204.46 -3.58,-401.32 54.51,-596.46 22.38,-75.17 60.87,-179.7 95.69,-240 41.43,7.52 1287.51,3.68 1303.62,-0.77 -18.33,-13.03 -1121.51,-4.79 -1246.76,-4.81 -77.99,-0.01 -130.26,-4.86 -193.94,40.66 -11.24,8.03 -29.79,25.12 -39.58,37.51 -56.63,71.65 -45.94,160.85 -45.94,265.38 0,104.45 0,208.89 0,313.34l0.17 236.42c-1.06,30.58 -6.49,39.95 -34.06,44.1z"/>
   <path class="fil1" d="M1547 815.85c-133.45,18.83 -102.8,164.84 -103,278.6 -0.12,69.87 11.99,108.28 54.96,133.71 38.08,22.53 251.81,61.35 275.41,-78.12 7.22,-42.69 1.84,-138.38 1.94,-187.34 0.13,-64.48 -14.78,-106.49 -57.08,-131.96 -34.39,-20.71 -127.44,-21.2 -172.24,-14.88z"/>
   <path class="fil1" d="M988.37 815.81c-134,18.6 -103.04,167.89 -103.24,278.63 -0.13,69.78 12.09,108.82 55.03,133.91 35.36,20.67 249.72,63.74 275.29,-78.54 7.33,-40.82 1.93,-139.55 2.03,-187.13 0.13,-64.42 -15.04,-106.16 -57.02,-131.78 -34.37,-20.97 -127.1,-21.34 -172.08,-15.1z"/>
   <path class="fil1" d="M1540.45 1409.74c-123.84,22.44 -96.23,164.82 -96.48,284.16 -0.14,66.07 14.96,105.92 58.44,130.08 35.75,19.86 133.38,21.59 178.78,13.46 125.83,-22.54 94.91,-175.41 95.15,-284.39 0.15,-65.01 -17.06,-106.89 -58.95,-130.15 -33.09,-18.37 -135.41,-20.68 -176.93,-13.16z"/>
   <path class="fil1" d="M429.73 815.76c-129.86,18.31 -103.23,158.07 -103.44,278.67 -0.12,64.69 12.42,108.02 55.07,134.12 37.94,23.21 129.97,23.52 179.45,16.25 128.79,-18.9 97.6,-178.57 97.81,-282.13 0.13,-63.61 -14.35,-106.81 -56.91,-131.63 -35.75,-20.86 -125.75,-21.8 -171.98,-15.28z"/>
   <path class="fil1" d="M326.96 1732.35c4.21,29.95 11.5,38.24 20.2,61.38 9.38,4.01 26.05,26.11 50.13,36.47 23.87,10.27 53.33,9.63 81.82,9.57 65.84,-0.14 108.81,4.32 146.46,-35.81 37.47,-39.94 33.03,-81.67 33.03,-146.43 -0,-88.71 25.87,-241.69 -111.33,-249.46 -118.51,-6.71 -221.25,-7.35 -221.01,140.41 0.09,58.67 -3.08,126.39 0.71,183.87z"/>
   <path class="fil6" d="M604.87 2257.02l-116.74 -168.14c-12.66,-19.49 -30.35,-45.93 -36.49,-65.72 -257.72,2.03 -404.98,-56.54 -378.93,191.96 5.38,51.3 47.03,41.87 97.6,41.84l434.56 0.05z"/>
   <path class="fil1" d="M826.55 153.88c-212.39,54 -125.25,372.56 83.91,313.72 73.5,-20.68 139.27,-100.44 113.3,-199.48 -19.44,-74.16 -99.21,-139.15 -197.21,-114.24z"/>
   <path class="fil1" d="M417.15 195.27l0 231.6c0,50.57 44.08,60.81 62.01,31.9 11.76,-18.95 6.03,-89.66 6.03,-116.83l110.68 -0.59c-0.03,27.47 -5.78,98.31 5.96,117.24 18.02,29.06 62.05,19.09 62.05,-31.72l0 -231.6c0,-37.66 -11.08,-50.14 -50.51,-45.26 -17.59,21.23 -17.6,13.93 -17.74,49.62 -0.09,23.77 0.45,47.48 -0.01,71.3l-110.26 0.17c-0.5,-27.49 7.22,-91.97 -7.8,-110.72 -9.67,-12.07 -60.42,-31.39 -60.42,34.9z"/>
   <path class="fil1" d="M1365.62 404.36l0.25 -57.55c42.59,-3.13 97.66,11.92 98.94,-33.76 1.35,-48.33 -60.79,-32.31 -99.19,-36.31l0 -57.78c37.67,-3.3 93.2,10.02 105.05,-22.4 17.79,-48.66 -39.02,-46.78 -74.24,-46.68 -117.94,0.35 -98.85,-9.18 -98.85,158.92 0,39.92 -2.49,88.24 -0.01,127.11 3.16,49.56 47.48,37.78 94.31,37.87 36.78,0.06 94.8,5.57 79.23,-44.17 -11.6,-37.08 -69.99,-21.08 -105.5,-25.25z"/>
   <path class="fil7 str1" d="M557.3 1765.24c34.42,-0.62 33.35,-45.66 33.24,-80.44 -0.12,-39.36 -0.1,-78.76 -0.01,-118.11 0.26,-112.44 -36.04,-91.46 -141.11,-90.76 -1.52,61.04 -7.86,127.66 14.28,183.2 11.39,28.58 21.1,41.42 37.24,62.7 13.56,17.88 27.83,38.06 56.36,43.41z"/>
   <path class="fil7 str1" d="M1674.8 1765.33c35.7,-2.51 33.56,-42.85 33.44,-80.53 -0.12,-39.35 -0.1,-78.75 -0.01,-118.11 0.24,-102.52 -17.67,-91.9 -140.83,-90.74 -2.4,62.39 -7.02,125.43 14.08,182.53 15.8,42.76 56.3,99.55 93.33,106.85z"/>
   <path class="fil7 str1" d="M1109.44 1177.2c56.29,-15.04 39.93,-83.8 39.93,-146.36 0,-55.52 15,-143.19 -39.9,-143.71 -30,8.06 -68.97,2.91 -101.07,2.91 -5.2,90.4 -6.58,167.43 49.9,238.25 20.39,25.58 43.29,37.04 51.14,48.9z"/>
   <path class="fil8 str1" d="M551.06 1177.15c55.58,-15.7 39.46,-83.95 39.46,-146.3 0,-55.25 15.36,-142.67 -39.76,-143.66 -30,8.04 -69.09,2.86 -101.21,2.86 -5.56,85.12 -4.65,172.79 50.22,238.23 7.36,8.78 16.59,16.72 24.65,25.22 12.48,13.16 16.03,9.53 26.64,23.65z"/>
   <path class="fil7 str1" d="M1668.32 1177.25c27.04,-7.15 38.18,-20.22 39.88,-51.21 1.64,-29.83 0.02,-64.79 0.02,-95.19 0,-55.51 15.11,-143.71 -40.06,-143.74 -29.98,8.06 -68.83,2.95 -100.9,2.95 -19.54,230.28 76.13,249.79 101.06,287.2z"/>
   <path class="fil1" d="M1107.64 215.81c0,49.16 0,98.32 0,147.48 0,40.79 -13.14,109.95 34.57,109.84 64.05,-0.15 19.36,-157.3 34.92,-256.48 32.28,-2.9 82.51,0.19 67.67,-46.36 -10.8,-33.86 -69.88,-22.53 -102.68,-22.53 -31.39,0 -89.01,-10.41 -101.76,18.8 -21.51,49.32 34.58,49.24 67.28,49.24z"/>
   <path class="fil2" d="M836.02 222.54c-31.76,12.24 -36.97,14.57 -52.07,41.54 -43.63,77.92 32.84,167.32 116.87,134.93 114.81,-44.25 49.42,-220.48 -64.8,-176.47z"/>
   <path class="fil1" d="M1595 405.73c0,-35.3 3.69,-220.51 -3.12,-238.02 -10.87,-27.93 -61.4,-31.43 -64.93,18.12l-0.21 241.34c1.14,52.79 32.6,46.79 78.58,46.7 35.85,-0.07 82.25,5.66 79.57,-36.93 -2.56,-40.79 -50.33,-31.21 -89.89,-31.21z"/>
   <path class="fil9" d="M1668.32 1177.25c-24.93,-37.41 -120.6,-56.92 -101.06,-287.2 32.07,0 70.91,5.12 100.9,-2.95 -18.19,-12.14 -119.42,-7.13 -137.39,5.51 -29.3,20.62 -18.67,91.49 -18.67,133.69 0,149.89 -15.64,165.44 156.22,150.94z"/>
   <path class="fil9" d="M551.06 1177.15c-10.61,-14.12 -14.16,-10.48 -26.64,-23.65 -8.06,-8.51 -17.29,-16.44 -24.65,-25.22 -54.88,-65.44 -55.79,-153.11 -50.22,-238.23 32.12,0 71.21,5.17 101.21,-2.86 -17.37,-12.08 -120.02,-7.15 -137.64,4.97 -28.96,19.92 -18.73,91.66 -18.73,134.15 0,40.6 -8.68,114.95 14.24,138.5 20.45,21.02 106.84,15.67 142.44,12.34z"/>
   <path class="fil9" d="M1109.44 1177.2c-7.85,-11.86 -30.75,-23.33 -51.14,-48.9 -56.48,-70.82 -55.1,-147.85 -49.9,-238.25 32.1,0 71.07,5.14 101.07,-2.91 -17.69,-12.02 -119.93,-7.21 -137.52,5.25 -28.76,20.37 -18.71,91.09 -18.71,133.92 0,39.31 -9.06,115.36 14.15,138.35 21.42,21.22 105.73,15.84 142.06,12.55z"/>
   <path class="fil9" d="M557.3 1765.24c-28.53,-5.35 -42.79,-25.53 -56.36,-43.41 -16.15,-21.29 -25.86,-34.13 -37.24,-62.7 -22.13,-55.54 -15.8,-122.16 -14.28,-183.2 -75,4.85 -54.77,80.88 -55.04,204.31 -0.22,100.85 16.52,92.7 130.35,91.73 23.9,-0.2 23.5,-0.48 32.57,-6.73z"/>
   <path class="fil9" d="M1674.8 1765.33c-37.03,-7.3 -77.53,-64.09 -93.33,-106.85 -21.09,-57.09 -16.48,-120.14 -14.08,-182.53 -45.71,2.17 -55.54,27.97 -55.4,72.39 0.13,43.96 0.18,87.93 0.08,131.9 -0.09,39.65 -2.89,79.84 35.48,89.36 15.3,3.8 45.4,2.05 62.29,2.06l49.89 -0.65c29.54,-5.72 -19.2,6.61 7.89,-2.29l7.16 -3.4z"/>
   <path class="fil10" d="M1309.62 1535.27l1.52 419.45c22.41,5.91 566.91,6.8 596.52,0.6l2.11 -788.64c-12.79,23.63 -4.38,157.04 -4.38,195.66l-0.36 590.71 -589.61 0c0,-55.12 6.74,-397.52 -5.8,-417.79z"/>
   <path class="fil11" d="M1241.03 1540.63l-1.28 411.94 -379.72 0 1.47 -412.04c-10.51,14.38 -11.51,376.96 -3.51,414.73l384.02 1.74c10.54,-39.4 9.46,-402.26 -0.99,-416.38z"/>
   <path class="fil10" d="M408.6 1952.53l-211.1 0.23c0,-50.79 9.46,-273.26 -4.34,-300.86l0.13 303.2c31.09,5.74 577.95,4.91 596.63,-0.38l2.09 -417.58c-11.13,25.27 -4.84,390.15 -4.84,415.94l-378.57 -0.56z"/>
  </g>
 </g>
</svg>
