<?xml version="1.0" encoding="UTF-8"?>
<!DOCTYPE svg PUBLIC "-//W3C//DTD SVG 1.1//EN" "http://www.w3.org/Graphics/SVG/1.1/DTD/svg11.dtd">
<!-- Creator: CorelDRAW -->
<svg xmlns="http://www.w3.org/2000/svg" xml:space="preserve" width="16mm" height="18.7059mm" version="1.1" style="shape-rendering:geometricPrecision; text-rendering:geometricPrecision; image-rendering:optimizeQuality; fill-rule:evenodd; clip-rule:evenodd"
viewBox="0 0 59.9 70.03"
 xmlns:xlink="http://www.w3.org/1999/xlink"
 xmlns:xodm="http://www.corel.com/coreldraw/odm/2003">
 <defs>
  <style type="text/css">
   <![CDATA[
    .str1 {stroke:#FEF2DD;stroke-width:0.75;stroke-miterlimit:22.9256}
    .str0 {stroke:#FFE4C1;stroke-width:0.75;stroke-miterlimit:22.9256}
    .fil0 {fill:black}
    .fil5 {fill:#0593FC}
    .fil14 {fill:#322B59}
    .fil6 {fill:#54469C}
    .fil2 {fill:#6353B1}
    .fil4 {fill:#7DB121}
    .fil12 {fill:#A24E3D}
    .fil3 {fill:#BB5D4C}
    .fil1 {fill:#E9F5FE}
    .fil13 {fill:#FDB441}
    .fil8 {fill:#FDD2A4}
    .fil10 {fill:#FEF2DD}
    .fil9 {fill:#FFD05B}
    .fil11 {fill:#FFE4C1}
    .fil7 {fill:#FFE4C1}
   ]]>
  </style>
 </defs>
 <g id="Camada_x0020_1">
  <metadata id="CorelCorpID_0Corel-Layer"/>
  <g id="_2004479127312">
   <path class="fil0" d="M22.92 64.56c-0.63,0.41 -0.92,0.21 -0.98,1.24 -0.04,0.68 0,1.49 0,2.18l-15.37 0 -4.39 0.01c-0.23,-0.39 -0.13,-2.18 -0.13,-2.74 0,-2.67 -0.13,-18.58 0.07,-19.5 1.34,-0.18 19.26,-0.15 19.87,0.03l0.03 15.42c0.26,0.67 0.35,0.42 0.9,0.78 0.96,-0.18 1.16,-0.65 1.16,-1.78 1.91,0 31.75,0.16 32.78,-0.05 1.35,-0.28 1.42,-1.15 1.42,-2.69l0 -45.14c0.01,-3.36 -1.04,-2.74 -5.47,-2.74 -3.65,0 -36.1,-0.16 -36.82,0.11 -1.35,0.5 -1.07,1.87 -1.07,3.04 -0.9,-0.02 -2.36,-0.93 -5.28,-0.08 -1.32,0.38 -2.94,1.5 -3.69,2.47 -2.37,3.04 -2.39,6.12 -0.74,9.25 -2.3,0 -3.51,0.54 -4.19,2.24 -0.35,0.88 -0.21,2.02 0.18,2.73l3.56 6.15c0.42,0.75 2.23,3.67 2.37,4.2 -1.11,0 -2.11,0.55 -2.67,1.16 -0.68,0.73 -1.02,1.46 -1.02,2.81 -1.26,0 -2.24,-0.12 -2.89,0.53 -0.65,0.65 -0.53,1.63 -0.53,2.89l-0.01 20.8c-0.01,1.54 0.63,2.04 1.66,2.18l3 0 17.51 0c0.96,-0.05 1.75,-0.4 1.78,-1.5l32.28 0c1.54,0 3.52,0.35 3.67,-0.99 0.17,-1.59 -2.27,-1.2 -3.26,-1.2l-32.55 0c0,-1.13 -0.2,-1.6 -1.16,-1.78z"/>
   <path class="fil1" d="M52.97 26.53c0.34,-0.39 0.22,-0.74 0.21,-1.36 -0,-0.63 0.13,-1.11 -0.21,-1.5 -1.15,-0.29 -0.82,-1.46 -0.82,-3.56 0,-1.47 0,-2.93 0,-4.4l-31.12 0 0 8.97c1.98,0.61 2.8,2.93 1.51,5.1 -1.65,2.76 -1.74,2.41 -1.48,6.47 0.41,-0.38 3.48,-5.91 4.07,-6.9 0.67,-1.12 1.3,-2.44 2.01,-3.46 0.75,-1.08 2.71,-1.42 3.73,-0.26l8.07 13.84 4.22 -7.26c0.46,-0.78 1.13,-1.57 2.52,-1.42 1.62,0.17 2.45,2.31 3.55,4.26 0.49,0.87 2.45,4.46 2.9,4.9 0.16,-2.44 0.03,-7.73 0.03,-10.68 -0,-1.29 -0.31,-2.46 0.82,-2.74z"/>
   <path class="fil2" d="M6.74 48.84c1.1,-0.5 5.64,-0.25 7.23,-0.25 3.9,0 3.93,-0.32 3.93,3.66 0,3.9 0.09,3.78 -3.8,3.78 -1.55,0 -6.31,0.29 -7.35,-0.26l-0.1 0.21c-0.16,0.54 -0.08,2.09 -0.08,2.7l0 9.3 15.37 0c0,-0.69 -0.04,-1.51 -0,-2.18 0.06,-1.02 0.35,-0.83 0.98,-1.24l0 -2.6c-0.55,-0.35 -0.64,-0.11 -0.9,-0.78l-0.1 -0.21c-0.23,-0.77 -0.07,-13.54 -0.07,-15.16l-15.28 0.01 0.16 3.01z"/>
   <path class="fil3" d="M52.55 13.68c2.19,0.22 1.65,2.64 1.65,4.79 0,1.05 -0,2.1 0,3.15 0.01,1.12 0.07,2.16 -1.23,2.05 0.34,0.39 0.21,0.87 0.21,1.5 0,0.63 0.13,0.98 -0.21,1.36l0.71 -0.01c0.78,1 0.53,1.24 0.53,3.16l0 18.88c0,8.53 1.2,7.49 -7.55,7.49 -7.55,0 -15.1,0 -22.66,0l0 2.01 32.22 0 0 -46.21c-1.05,-0.27 -29.59,-0.1 -31.46,-0.1l0 1.81c4.65,0 9.31,0 13.96,0 3.37,0 9.87,-0.13 13.14,-0.01l0.69 0.13z"/>
   <path class="fil4" d="M21.04 41.04l0 2.65c3,0 2.82,0.42 2.98,3.43l10.19 0.05c0.53,0 0.65,-0.56 0.89,-1l2.26 -3.9c0.35,-0.57 0.47,-0.6 0.11,-1.2l-2.27 -3.89c-0.78,-1.32 -5.5,-9.84 -6.05,-10.21 -0.55,0.18 -0.85,1.01 -1.17,1.55l-3.05 5.3c-0.63,1.11 -3.89,6.38 -3.89,7.23z"/>
   <path class="fil0" d="M28.83 5.33c-0.19,-0.97 -0.59,-1.1 -1.64,-1.1l-6.02 0 -0 -2.18 5.93 -0 24.93 0 -0.01 2.18 -16.3 0c-2.39,0 -3.91,-0.42 -4.2,1.1 0.4,1.34 1.03,0.96 4.06,0.96l15.46 0c1.41,0 2.9,0.3 3.13,-1.93 0.18,-1.69 0.12,-3.67 -0.97,-4.19 -0.16,-0.08 -0.53,-0.13 -1.03,-0.17l-9.06 0 -0.32 0 -0.32 0 -0.32 0 -0.32 0 -0.32 0 -0.32 0 -0.32 0 -0.32 0 -0.32 0 -0.32 0 -0.32 0 -0.32 0 -0.32 0c-5.24,0 -10.47,0 -15.71,0l-0.32 0 -0.32 0 -0.16 0c-3.28,0 -3.49,0.06 -3.4,4.11 0.07,3.01 2.64,2.18 5.61,2.18 3.1,0 3.79,0.39 4.2,-0.96z"/>
   <polygon class="fil5" points="24,53.96 52.11,54 52.16,53.48 52.15,49.22 26.27,49.22 24,49.24 "/>
   <path class="fil4" d="M36.96 47.16l15.16 0.01c0.25,-3.14 -0.07,-3.14 -1.49,-5.6 -0.63,-1.08 -4.74,-8.43 -5.21,-8.73 -0.59,0.21 -1.81,2.7 -2.21,3.39l-4.2 7.29c-0.54,0.93 -1.73,2.74 -2.05,3.64z"/>
   <path class="fil6" d="M2.18 67.99l4.39 -0.01 0 -9.3c0,-0.61 -0.08,-2.16 0.08,-2.7l0.1 -0.21c-0.87,-0.96 -0.59,-1.77 -0.59,-3.38 0,-1.65 -0.27,-2.5 0.58,-3.55l-0.16 -3.01 -4.39 0.01 0 22.15z"/>
   <path class="fil7 str0" d="M7.96 27.11c-1.03,0.39 0.67,2.89 0.91,3.29 0.61,1.03 1.21,2.11 1.8,3.13 0.57,0.98 3.29,5.53 3.51,6.18 0.55,-0.19 0.44,-0.26 1.01,-1.28 0.29,-0.52 0.55,-0.96 0.85,-1.48l4.95 -8.6c0.78,-1.75 -0.9,-1.85 -2.23,-1.84 -2.73,0.01 -1.63,0.14 -3.56,0.98 -1.74,0.76 -3.72,0.89 -5.6,0.27 -0.57,-0.19 -1.17,-0.53 -1.63,-0.65z"/>
   <path class="fil0" d="M6.74 48.84c-0.85,1.05 -0.58,1.9 -0.58,3.55 0,1.61 -0.28,2.42 0.59,3.38 1.03,0.55 5.8,0.26 7.35,0.26 3.89,0 3.8,0.11 3.8,-3.78 0,-3.98 -0.03,-3.66 -3.93,-3.66 -1.58,0 -6.12,-0.26 -7.23,0.25z"/>
   <path class="fil0" d="M40.01 17.76c-2.17,0.62 -4.12,2.75 -3.3,5.72 1.63,5.92 10.64,3.54 9.03,-2.46 -0.58,-2.17 -2.93,-4.05 -5.73,-3.25z"/>
   <path class="fil8" d="M14.17 39.71c-0.21,-0.65 -2.94,-5.2 -3.51,-6.18 -0.59,-1.02 -1.19,-2.1 -1.8,-3.13 -0.24,-0.4 -1.94,-2.9 -0.91,-3.29 -0.67,-0.8 -1.36,-0.6 -2.61,-0.6 -2.74,-0.01 -3.01,0.64 -1.61,3.01l3.5 6.07c0.64,1.11 1.92,3.03 2.32,4.11l4.61 0.01z"/>
   <path class="fil9" d="M27.19 4.23c1.05,0 1.45,0.13 1.64,1.1l2.68 0c0.28,-1.52 1.81,-1.1 4.2,-1.1l16.3 0 0.01 -2.18 -24.93 0 0.1 2.18z"/>
   <path class="fil10 str1" d="M10.27 17.71c3.38,-0 2.13,0.69 2.45,3.6 0.8,0 1.57,-0.09 1.9,0.47 0.35,0.6 -0,1.23 -0.41,1.45 -0.46,0.24 -1.6,0.15 -2.17,0.14 -1.03,-0.02 -0.92,-0.13 -1.38,-0.66 -0.31,-0.27 -0.27,-0.98 -0.26,-1.37 0.01,-0.46 0.01,-0.91 0.01,-1.37l-0.66 0c-0.02,2 0.61,3.56 1.78,4.9 0.49,0.56 0.68,0.56 1.01,0.93 0.12,0.14 0.09,0.1 0.21,0.26 2.85,-0.43 5.15,-2.68 5.15,-5.81 0,-3.07 -2.32,-5.49 -5.15,-5.82 -0.4,0.58 -0.9,0.74 -1.41,1.41 -0.43,0.56 -0.87,1.1 -1.06,1.88z"/>
   <path class="fil11" d="M12.74 26.06c-0.12,-0.16 -0.08,-0.12 -0.21,-0.26 -0.33,-0.36 -0.52,-0.37 -1.01,-0.93 -1.17,-1.34 -1.8,-2.9 -1.78,-4.9l0.66 0c0,0.46 0,0.91 -0.01,1.37 -0.01,0.39 -0.05,1.1 0.26,1.37l-0.07 -2.92c-1.16,-0.12 -3.09,0.39 -3.23,-0.92 -0.16,-1.48 1.72,-1.16 2.91,-1.16 0.18,-0.78 0.63,-1.32 1.06,-1.88 0.51,-0.67 1.02,-0.83 1.41,-1.41 -3.5,-0.59 -6.58,2.45 -6.57,5.82 0.01,3.44 2.96,6.22 6.57,5.81z"/>
   <path class="fil12" d="M52.55 13.68l-0.69 -0.13c-3.27,-0.12 -9.77,0.01 -13.14,0.01 -4.65,0 -9.31,0 -13.96,0l0 -1.81c1.87,0 30.41,-0.18 31.46,0.1 -0.11,-0.22 0.14,-0.25 -1.08,-0.23l-18.47 0.01c-6.56,0 -13.13,0.02 -19.69,0.02l-0.02 2.47c0.45,0.27 1.76,1.63 1.98,2.22 0.38,-3.2 0.32,-2.71 6.37,-2.65l27.24 -0z"/>
   <polygon class="fil13" points="8.22,53.99 15.81,53.99 15.85,50.67 8.25,50.65 "/>
   <path class="fil0" d="M10.66 22.71c0.45,0.53 0.35,0.64 1.38,0.66 0.58,0.01 1.72,0.1 2.17,-0.14 0.41,-0.21 0.76,-0.85 0.41,-1.45 -0.33,-0.56 -1.11,-0.47 -1.9,-0.47 -0.31,-2.91 0.94,-3.6 -2.45,-3.6 -1.19,-0 -3.07,-0.32 -2.91,1.16 0.14,1.31 2.07,0.8 3.23,0.92l0.07 2.92z"/>
   <polygon class="fil9" points="10.68,53.76 15.67,53.76 15.67,50.82 10.68,50.82 "/>
   <path class="fil9" d="M41.82 24.7c1.14,-0.02 2.13,-1.31 2.02,-2.68 -0.12,-1.44 -1.13,-2.25 -2.58,-2.4 -0.41,0.91 -1.09,1.35 -0.96,2.96 0.04,0.57 0.25,1.06 0.47,1.49 0.3,0.58 0.33,0.59 1.04,0.64z"/>
   <path class="fil10 str1" d="M10.26 43.7l8.31 0c-0.05,-1 -0.42,-1.79 -1.34,-1.79 -1,0.26 -5.19,0.08 -6.55,0.09 -0.34,0.56 -0.4,0.94 -0.42,1.71z"/>
   <polygon class="fil13" points="27.19,4.23 27.09,2.05 21.16,2.05 21.17,4.23 "/>
   <path class="fil11" d="M10.26 43.7c0.02,-0.77 0.08,-1.15 0.42,-1.71 1.35,-0 5.55,0.18 6.55,-0.09 -0.38,-0.26 -0.76,-0.16 -1.48,-0.16l-5.2 0.01c-2.36,0.01 -4.94,-0.66 -5.06,1.93l4.77 0.01z"/>
   <path class="fil14" d="M2.18 67.99l0 -22.15 4.39 -0.01 15.28 -0.01c0,1.62 -0.16,14.39 0.07,15.16l0.1 0.21 -0.03 -15.42c-0.61,-0.18 -18.53,-0.21 -19.87,-0.03 -0.2,0.92 -0.07,16.83 -0.07,19.5 0,0.57 -0.1,2.36 0.13,2.74z"/>
   <path class="fil13" d="M41.82 24.7c-0.72,-0.05 -0.74,-0.06 -1.04,-0.64 -0.22,-0.42 -0.43,-0.91 -0.47,-1.49 -0.13,-1.61 0.55,-2.04 0.96,-2.96 -1.6,0.08 -2.82,1.26 -2.65,2.93 0.08,0.85 0.6,1.47 1.06,1.81 0.5,0.37 1.6,0.8 2.15,0.34z"/>
   <path class="fil0" d="M14.92 19.76l0.41 0c1.89,0 1.9,-2.05 0,-2.05l-0.41 0c-1.98,0 -1.97,2.05 0,2.05z"/>
   <path class="fil12" d="M16.86 39.68c1.15,0.15 1.18,0.25 2.09,0.61l0.02 -4.23c-0.14,0.3 -0.81,1.31 -1.05,1.7 -0.35,0.59 -0.82,1.32 -1.07,1.93z"/>
  </g>
 </g>
</svg>
