<?xml version="1.0" encoding="UTF-8"?>
<!DOCTYPE svg PUBLIC "-//W3C//DTD SVG 1.1//EN" "http://www.w3.org/Graphics/SVG/1.1/DTD/svg11.dtd">
<!-- Creator: CorelDRAW -->
<svg xmlns="http://www.w3.org/2000/svg" xml:space="preserve" width="116.402mm" height="135.45mm" version="1.1" style="shape-rendering:geometricPrecision; text-rendering:geometricPrecision; image-rendering:optimizeQuality; fill-rule:evenodd; clip-rule:evenodd"
viewBox="0 0 2965.35 3450.59"
 xmlns:xlink="http://www.w3.org/1999/xlink"
 xmlns:xodm="http://www.corel.com/coreldraw/odm/2003">
 <defs>
  <style type="text/css">
   <![CDATA[
    .str2 {stroke:#ABE092;stroke-width:5.1;stroke-miterlimit:22.9256}
    .str0 {stroke:#DEF5FD;stroke-width:5.1;stroke-miterlimit:22.9256}
    .str1 {stroke:#F37B7B;stroke-width:5.1;stroke-miterlimit:22.9256}
    .fil0 {fill:black}
    .fil6 {fill:#96D87B}
    .fil5 {fill:#99E6FC}
    .fil4 {fill:#ABE092}
    .fil2 {fill:#DEF5FD}
    .fil1 {fill:#ED6161}
    .fil3 {fill:#F37B7B}
    .fil7 {fill:#FEF056}
   ]]>
  </style>
 </defs>
 <g id="Camada_x0020_1">
  <metadata id="CorelCorpID_0Corel-Layer"/>
  <g id="_2711415186880">
   <path class="fil0" d="M-0 1469.2c0,275.59 160.83,578.25 293.83,777.74 49.96,74.93 123.79,184.45 179.48,251.84 33.69,40.77 60.42,80.02 94.87,120.79 17.74,20.99 32.07,37.04 49.75,58.08 17.68,21.03 34.34,39.1 49.26,58.57 67.98,88.71 345.29,368.88 419.53,443.12l222.38 208.94c39.9,37.66 95.94,58.38 153.56,62.32l40.54 0c56.09,-3.81 110.45,-23.52 149.58,-59.02 12.13,-11 14.09,-14.81 28.17,-25.75 50.63,-39.33 388.12,-372.97 409.26,-399.47 58.56,-73.41 175.72,-187.88 254.15,-285.01l94.41 -114.51c229.84,-288.49 526.56,-719.21 526.56,-1090.9 0,-221.23 -51.99,-410.39 -128.98,-598.88 -26.26,-64.3 -90.31,-177.31 -130.97,-232.96 -58.25,-79.74 -50.13,-72.91 -119.08,-150.5 -150.61,-169.49 -228.45,-214.83 -406.64,-321.22 -166.11,-99.18 -445.89,-172.38 -649.83,-172.38 -302.89,0 -416,29.67 -677.84,137.63l-118.8 63.16c-254.49,160.5 -484.87,388.51 -602.32,671.43 -77.56,186.83 -130.89,381.13 -130.89,596.97z"/>
   <path class="fil1" d="M1857.2 3048.11c-25.26,-4.03 -188.32,-198.93 -209.72,-220.72l-99.71 -115.84c-28.3,-36.84 -79.04,-87.46 -96.54,-125.84 -616.9,-19.73 -1131.61,-549.05 -1070.94,-1209.55 43.34,-471.77 366.21,-818.54 760.52,-949.71 179.08,-59.57 309.37,-58.29 503.57,-43.87 -8.26,-6.33 4.27,-10.83 -21.02,-11.19l177.13 -94.37c65.5,-30.85 125.29,-49.2 192.19,-71.86 -37.4,-42.45 -280.01,-86.66 -355.69,-95.38 -610.23,-70.25 -1193.68,280.12 -1425.29,836.54 -232.09,557.57 -61.11,912.44 248.35,1363.54 53.53,78.04 239.39,313.66 301.63,379.17l271.31 294.69c20.03,20.13 40.39,33.89 60.36,54.17l173.27 170.52c20.91,18.71 36.43,38.83 57.35,57 121.29,105.35 176.39,119.18 302.89,12.49 36.05,-30.41 213.58,-200.36 230.35,-229.82z"/>
   <path class="fil2 str0" d="M971.41 1540.05l47.62 -33.35c-38.2,-67.9 51.29,-109.02 136.59,-182.66 158.75,-137.04 171.84,-119.81 338.85,12.05 36.3,28.66 65.64,52.83 101.22,80.75l196.42 159.72c98.9,-40.02 236.91,-243.51 350.46,-234.72 84.4,6.53 274.42,212.83 341.31,239.48 38.26,-520.69 -217.37,-620.53 -146.08,-718.25 -11.23,-24.59 -49.72,-69.73 -66,-87.97 -42.94,17.72 -57.01,10.95 -85.77,-15.93 -71.13,-66.49 -129.87,-112.76 -220.99,-163.35 -76.89,-42.69 -299.89,-132.63 -403.19,-114.99 -38.99,6.58 -51.47,-16.33 -90.6,6.81 -48.78,28.85 -204.03,207.59 -244.38,267.41 -134.14,198.86 -274.45,517.7 -255.47,784.99z"/>
   <path class="fil3 str1" d="M1644.39 382.58c75.31,18.55 132.13,25.47 205.93,51.78 120.77,43.06 244.14,110.74 335.62,190.08 46.3,40.15 122.11,74.69 85.86,150.66 16.28,18.24 54.77,63.38 66,87.97 65.98,-21.3 73.04,9.35 99.78,55.57 165.99,286.97 195.95,607.34 91.31,922.84 -92.87,280.01 -282.79,477.81 -524.03,614.74 -49.59,28.14 -67.58,40.84 -110.5,-1.55l-109.32 35.48c14.11,71.88 -75.75,74.3 -134.61,83.41 -66.48,10.3 -130.8,13.65 -199.19,12.14 17.5,38.38 68.23,88.99 96.54,125.84l99.71 115.84c21.39,21.79 184.46,216.69 209.72,220.72 59.22,-29.49 350.96,-367.65 424.11,-449.99 186.13,-209.54 480.59,-625.91 552.21,-923.51 110.3,-458.39 -135.62,-981.1 -466.37,-1251.66 -49.39,-40.4 -290.65,-218.02 -374.46,-217.77 -66.9,22.65 -126.69,41.01 -192.19,71.86l-177.13 94.37c25.29,0.36 12.76,4.86 21.02,11.19z"/>
   <path class="fil4 str2" d="M1019.03 1506.71l-47.62 33.35 -8 10.38c11.86,26.57 8.91,112.25 15.99,151.52 8.63,47.85 20.11,91.33 33.45,135.54 64.83,214.79 174.23,373.56 286.53,549.41 11.79,18.46 18.2,27.7 33.15,47.74l42.28 44.52c71.45,9.05 148.95,7.42 221.32,-0.22 35.27,-3.72 68.9,-10.08 104,-17.8 49.21,-10.83 68.96,-10.52 84.91,29.03l109.32 -35.48c-9.93,-72.49 37.99,-73.53 88.07,-101.64 93.96,-52.74 255.23,-181.92 295.88,-264.58 -41.63,-20.13 -935.33,-754.79 -957.38,-757.26 -20.34,-2.28 -187.89,140.25 -219.68,167.82 -29.38,25.48 -45.81,31.05 -82.22,7.69z"/>
   <path class="fil0" d="M2337.81 863.07c-71.29,97.73 184.34,197.57 146.08,718.25 -66.9,-26.65 -256.91,-232.95 -341.31,-239.48 -113.55,-8.79 -251.56,194.71 -350.46,234.72l-196.42 -159.72c-35.58,-27.93 -64.92,-52.09 -101.22,-80.75 -167,-131.86 -180.1,-149.09 -338.85,-12.05 -85.31,73.64 -174.79,114.77 -136.59,182.66 36.41,23.36 52.84,17.78 82.22,-7.69 31.79,-27.56 199.34,-170.1 219.68,-167.82 22.05,2.47 915.75,737.13 957.38,757.26 -40.65,82.66 -201.92,211.85 -295.88,264.58 -50.08,28.11 -98,29.15 -88.07,101.64 42.93,42.39 60.92,29.69 110.5,1.55 241.24,-136.93 431.16,-334.73 524.03,-614.74 104.65,-315.5 74.68,-635.87 -91.31,-922.84 -26.74,-46.22 -33.8,-76.88 -99.78,-55.57z"/>
   <path class="fil5" d="M926.41 1568.15c24.92,0.29 11.15,-5.35 37,-17.72l8 -10.38c-18.98,-267.29 121.33,-586.14 255.47,-784.99 40.36,-59.83 195.6,-238.56 244.38,-267.41 39.13,-23.14 51.62,-0.23 90.6,-6.81 -46.48,-29.21 -221.63,1.11 -280.26,12.51 -394.87,76.83 -701.65,392.3 -785.19,785.4 -36.22,170.44 -21.52,402.68 44.78,552.17 30.31,-20.82 60.39,-47.69 90.84,-73.43l184.2 -152.7c35.42,-30.57 52.38,-56.45 110.19,-36.64z"/>
   <path class="fil0" d="M1451.24 2585.72c68.4,1.51 132.71,-1.84 199.19,-12.14 58.86,-9.12 148.71,-11.54 134.61,-83.41 -15.95,-39.55 -35.7,-39.86 -84.91,-29.03 -35.1,7.72 -68.72,14.08 -104,17.8 -72.37,7.63 -149.87,9.26 -221.32,0.22 -274.22,-24.12 -497.42,-165.34 -660,-349.81 -24.19,-27.45 -121.12,-157.03 -128.34,-201.86l201.9 -168.63c100.08,-88.06 180.23,-115.73 138.03,-190.69 -57.81,-19.81 -74.77,6.06 -110.19,36.64l-184.2 152.7c-30.45,25.74 -60.53,52.61 -90.84,73.43 -66.29,-149.49 -81,-381.73 -44.78,-552.17 83.54,-393.1 390.32,-708.57 785.19,-785.4 58.64,-11.41 233.78,-41.72 280.26,-12.51 103.3,-17.65 326.3,72.3 403.19,114.99 91.12,50.59 149.86,96.86 220.99,163.35 28.76,26.89 42.82,33.65 85.77,15.93 36.25,-75.98 -39.56,-110.51 -85.86,-150.66 -91.49,-79.34 -214.85,-147.02 -335.62,-190.08 -73.8,-26.31 -130.63,-33.23 -205.93,-51.78 -194.2,-14.42 -324.49,-15.7 -503.57,43.87 -394.31,131.17 -717.18,477.94 -760.52,949.71 -60.67,660.5 454.04,1189.82 1070.94,1209.55z"/>
   <path class="fil6" d="M926.41 1568.15c42.19,74.96 -37.96,102.64 -138.03,190.69l-201.9 168.63c7.22,44.83 104.15,174.42 128.34,201.86 162.57,184.48 385.77,325.69 660,349.81l-42.28 -44.52c-14.95,-20.04 -21.36,-29.28 -33.15,-47.74 -112.3,-175.84 -221.7,-334.62 -286.53,-549.41 -13.34,-44.2 -24.82,-87.68 -33.45,-135.54 -7.08,-39.27 -4.13,-124.95 -15.99,-151.52 -25.84,12.37 -12.08,18.01 -37,17.72z"/>
   <path class="fil6" d="M1880.81 1645.87l459.03 361.97c34.63,-57.59 119.72,-226.15 121.25,-309.51 -49.1,-37.59 -96.05,-77.38 -142.24,-115.03 -48.63,-39.63 -95.45,-75.98 -145.83,-116.98 -48.95,-39.84 -55.14,-24.54 -151.26,56.8 -36.47,30.86 -120.22,95.22 -140.94,122.75z"/>
   <path class="fil0" d="M1748.37 834.62c-262.54,69.48 -153.4,457.36 102.25,389.2 91.02,-24.26 176.82,-119.44 143.26,-245.33 -24.88,-93.36 -121.12,-176.79 -245.52,-143.87z"/>
   <path class="fil7" d="M1764.89 934.18c-125.73,46.03 -58.51,235.08 66.63,189.99 127.9,-46.09 56.64,-235.11 -66.63,-189.99z"/>
  </g>
 </g>
</svg>
