<?xml version="1.0" encoding="UTF-8"?>
<!DOCTYPE svg PUBLIC "-//W3C//DTD SVG 1.1//EN" "http://www.w3.org/Graphics/SVG/1.1/DTD/svg11.dtd">
<!-- Creator: CorelDRAW -->
<svg xmlns="http://www.w3.org/2000/svg" xml:space="preserve" width="16mm" height="16mm" version="1.1" style="shape-rendering:geometricPrecision; text-rendering:geometricPrecision; image-rendering:optimizeQuality; fill-rule:evenodd; clip-rule:evenodd"
viewBox="0 0 48.4 48.4"
 xmlns:xlink="http://www.w3.org/1999/xlink"
 xmlns:xodm="http://www.corel.com/coreldraw/odm/2003">
 <defs>
  <style type="text/css">
   <![CDATA[
    .fil0 {fill:black}
    .fil11 {fill:#34261D}
    .fil3 {fill:#56AE12}
    .fil4 {fill:#70D6F9}
    .fil2 {fill:#86D047}
    .fil5 {fill:#9AE4F8}
    .fil9 {fill:#A57353}
    .fil1 {fill:#B1E06D}
    .fil7 {fill:#C18E6B}
    .fil6 {fill:#CBEFF7}
    .fil8 {fill:#F4C84C}
    .fil10 {fill:#FD657D}
   ]]>
  </style>
 </defs>
 <g id="Camada_x0020_1">
  <metadata id="CorelCorpID_0Corel-Layer"/>
  <g id="_2284020930384">
   <path class="fil0" d="M24.77 11.82c-0.72,-0.02 -0.05,-0.19 -1.4,0.01 -0.9,0.13 -2.12,0.77 -2.66,1.5 -0.08,0.11 -0.27,0.39 -0.36,0.49 -0.41,0.45 -1.25,0.15 -2.22,1.09 -0.98,0.94 -1.11,1.55 -1.11,2.86 0,0.48 0.15,0.5 0.19,0.95 -2.05,1.09 -3.34,2.86 -3.97,3.02 0.2,-0.84 0.38,-0.39 0.38,-1.8 0,-1.71 -1.65,-3.12 -3.12,-3.12 -1.84,0 -3.4,1.43 -3.4,3.21 0,0.71 0.25,1.14 0.38,1.7 -0.93,0.22 -1.89,1.54 -1.89,2.74 -0.82,0 -2.31,0.2 -3.27,0.05 -1.17,-0.18 -2.31,0.21 -2.31,1.27l0 21.27c0,0.59 0.73,1.32 1.32,1.32l45.75 0c0.59,0 1.32,-0.73 1.32,-1.32l0 -22.5c0,-0.45 -0.37,-0.84 -0.64,-1.06 -0.25,-0.2 -0.77,-0.5 -1.05,-0.65 -1.6,-0.82 -3.86,-1.11 -5.48,-0.18 -0.59,0.34 -1.05,0.73 -1.65,1.09 -1.32,0.8 -2.97,0.82 -4.5,0.79 -1.53,-0.02 -3.15,-0.72 -4.19,-1.29 -1.28,-0.71 -1.98,-1.6 -2.99,-2.49 2.49,0 4.98,0 7.47,0 2.13,0 3.94,0.12 5.2,-2.27 1.48,0 2.96,-0.01 4.44,0 2.86,0.02 3.05,-2.71 1.93,-3.82 -0.26,-0.26 -0.58,-0.47 -0.94,-0.57 -0.08,-0.02 -0.2,-0.04 -0.23,-0.05 -0.5,-0.17 -0.31,-0.52 -1.3,-1.07 -0.59,-0.33 -0.87,-0.35 -1.73,-0.35 -1.18,-2.24 -3.96,-2.74 -6.01,-1.19 -0.27,0.2 -0.34,0.35 -0.6,0.53 -0.53,-1.01 -1.09,-1.86 -2.1,-2.54 -2.16,-1.45 -4.85,-1.54 -7.06,-0.1 -0.26,0.17 -0.37,0.29 -0.64,0.5 -0.25,0.19 -0.38,0.32 -0.57,0.57 -0.21,0.26 -0.32,0.37 -0.5,0.64 -0.1,0.15 -0.12,0.22 -0.21,0.36 -0.11,0.18 -0.16,0.21 -0.28,0.38z"/>
   <path class="fil1" d="M16.31 30.86c3.1,1.01 2.32,6.56 -1.66,6.13 -0.96,-0.1 -0.92,0.05 -1.39,0.57 -0.3,0.34 -0.64,0.6 -1.14,0.84l-0.02 9.06c11.28,0 22.77,-0.07 34.03,0 1.27,0.01 1.33,-0.06 1.32,-1.32 -0.01,-1.76 -0,-3.53 -0,-5.29 -5.75,0 -11.89,0.51 -17.04,-1.39 -0.94,-0.35 -2.52,-1.07 -2.34,-2.28 0.3,-2.06 6.07,-2.01 2.71,-4.43 -0.7,-0.5 -2.17,-1.25 -3.09,-1.5 -0.51,0.89 -0.03,1.85 -2.64,1.86 -0.24,0.42 -0.35,0.37 -0.62,0.68 0,1.25 -0,2.5 0,3.75 0,1.7 0.3,2.26 -1.56,2.23 -1.53,-0.02 -1.17,-1.19 -1.15,-2.62 0.01,-0.82 -0.07,-0.91 -0.54,-1.32 -0.39,-0.35 -0.9,-0.51 -0.75,-1.22 0.54,-0.33 0.97,0.07 1.26,0.42 0.17,-1.64 -0.15,-1.35 -0.51,-1.93 -2.3,0.06 -3.01,-1.28 -2.29,-3.02 -2.45,-0.02 -2.25,-0.27 -2.58,0.78z"/>
   <path class="fil2" d="M14.19 22.31c0.96,1.6 1.33,1.65 0.58,3.95 1.04,0.49 1.83,1.36 1.93,2.86l2.78 0c-0.13,-1.12 0.26,-1.82 0.94,-2.13 -0.37,-1.86 0.32,-1.91 0.84,-2.59 -0.43,-1.43 0.47,-2.66 1.8,-2.69 1.43,-0.04 2.32,1.21 1.91,2.69 0.7,0.82 1.2,0.96 0.84,2.58 0.65,0.33 1.07,1.02 0.94,2.15l20.7 0.01c0,-1.07 -0,-2.14 0,-3.21 0,-1.52 -0.03,-1.55 -1.18,-2.13 -1.71,-0.86 -3.47,-1 -5.05,0.06 -1.44,0.97 -2.42,1.62 -4.73,1.77 -2.74,0.18 -5.46,-0.78 -7.42,-2.4 -1.8,-1.49 -3.03,-3.14 -5.72,-4.12 -1.93,-0.7 -3.71,-0.52 -5.44,0.34 -1,0.5 -2.07,1.32 -2.85,2.07 -0.36,0.35 -0.46,0.52 -0.87,0.82z"/>
   <path class="fil3" d="M9.71 17.91c-1.03,0.31 -1.95,1.38 -1.54,2.84 0.17,0.59 0.57,1.07 0,1.6 -0.47,0.44 -0.83,0.39 -1.25,1.02 -1.12,1.69 0.58,2.63 -0.26,3.52 -0.31,0.33 -2.08,0.9 -1.63,2.85 0.13,0.58 0.62,1.07 0.11,1.68 -0.3,0.35 -0.71,0.23 -1.28,1 -0.81,1.09 -0.42,2.48 0.42,3.17 1.3,1.06 2.53,-0.25 3.57,0.97 0.66,0.78 1.6,1.55 3.1,1.25 1.64,-0.33 1.69,-1.49 2.67,-1.77 0.77,-0.21 1.29,0.21 2.16,-0.11 1.76,-0.65 2.13,-3.1 0.34,-4.15 -1.8,-1.06 0.09,-1.49 -0.5,-3.28 -0.19,-0.57 -0.6,-0.99 -1.02,-1.25 -1.87,-1.16 0.02,-1.38 -0.52,-3.26 -0.49,-1.7 -2.24,-1.19 -1.77,-2.67 0.22,-0.69 0.48,-0.97 0.24,-1.85 -0.29,-1.04 -1.47,-1.97 -2.86,-1.56z"/>
   <path class="fil4" d="M38.47 39.89l8.98 0 0 -9.83 -20.05 0 2.45 1.06c0.82,0.41 1.64,0.86 2.21,1.39 0.51,0.48 1.08,1.55 0.43,2.43 -1.05,1.44 -4.85,1.86 -2.9,3.06 0.69,0.42 1.66,0.77 2.57,1.02 2.02,0.56 4.09,0.87 6.32,0.87z"/>
   <path class="fil5" d="M18.09 18.22c0.31,0 0.8,-0.21 1.15,-0.3 2.33,-0.56 4.31,0.01 6.29,1.16 1.44,0.84 0.54,0.77 2.45,0.77 2.11,-0 4.22,0 6.33,0 2.52,0 3.79,0.31 5.07,-1.3 -2.39,-0.42 -4.79,0.77 -6.2,-1.16 -1.01,-1.38 -0.56,-3.92 2.3,-4.13 0.15,-1.07 -1.68,-3.21 -3.67,-3.77 -2.51,-0.7 -4.57,0.58 -5.53,1.84 -1.02,1.33 -0.39,1.3 -2.37,1.4 -2.37,0.12 -2.55,1.95 -3.56,2.22 -0.65,0.17 -0.9,0.12 -1.39,0.5 -0.8,0.63 -1.19,1.41 -0.87,2.75z"/>
   <path class="fil1" d="M0.94 46.6c0,0.63 0.22,0.85 0.85,0.85l6.9 0 0 -4.47c-0.75,-0.55 -0.97,-0.91 -1.46,-1.34 -0.33,-0.29 -1.4,-0.9 -1.08,-1.56 0.55,-0.71 1.78,1.17 2.54,1.61l0.01 -3.13c-0.05,-0.19 -0.57,-0.39 -1.04,-0.85 -0.6,-0.59 -0.59,-0.81 -1.22,-0.78 -1.48,0.08 -2.25,-0.08 -3.04,-0.91 -1.72,-1.82 -0.85,-4.36 1.03,-5.22l-0.28 -0.74 -3.29 -0.01 0.09 16.54z"/>
   <path class="fil6" d="M38.77 11.6c-1.94,0.32 -2.09,1.66 -2.53,2.24 -0.43,0.57 -1.12,0.24 -1.77,0.6 -0.46,0.26 -0.87,0.79 -0.84,1.54 0.03,0.71 0.5,1.18 0.96,1.41 0.67,0.34 6.03,0.18 6.99,0.18 1,0 3.81,0.19 4.47,-0.24 0.41,-0.26 0.77,-1.01 0.39,-1.68 -0.46,-0.79 -0.94,-0.43 -1.51,-0.85 -0.28,-0.21 -0.43,-0.82 -1.28,-1.08 -0.81,-0.25 -1.27,0.15 -1.76,-0.6 -0.72,-1.08 -1.68,-1.76 -3.12,-1.52z"/>
   <path class="fil0" d="M14.65 5.77c-3.14,0 -3.24,3.4 -1.13,3.4l7.94 0c2.11,0 2.01,-3.4 -1.13,-3.4 -0.31,-0.64 -0.4,-1.13 -0.98,-1.57 -1.25,-0.93 -2.45,-0.93 -3.71,0 -0.62,0.46 -0.76,1.11 -0.98,1.57z"/>
   <path class="fil3" d="M22.69 22.75c-0.75,0.39 -0.6,0.77 -0.42,1.59 0.19,0.87 -0.64,0.78 -0.92,1.35 -0.4,0.79 0.5,1.26 -0.12,1.87 -0.41,0.4 -1.09,0.44 -0.75,1.5 0.32,1.03 -0.12,0.88 -0.62,1.38 -0.5,0.49 -0.27,1.32 0.2,1.6 0.67,0.4 1.18,-0.26 1.87,0.49 1.53,1.65 2.29,-0.2 2.97,-0.35 0.81,-0.18 1.43,0.21 1.73,-0.64 0.34,-0.95 -0.43,-1.15 -0.78,-1.52 -0.55,-0.58 0.25,-1.12 -0.12,-1.86 -0.27,-0.55 -1.08,-0.38 -0.92,-1.26 0.16,-0.89 0.44,-1.1 -0.41,-1.66 -0.91,-0.6 -0.18,-0.87 -0.26,-1.69 -0.06,-0.64 -0.77,-1.13 -1.45,-0.78z"/>
   <path class="fil5" d="M15.42 6.81c-0.7,0.19 -0.87,-0.29 -1.6,0.02 -0.33,0.14 -1.06,0.75 -0.65,1.17 0.31,0.36 1.51,0.17 2.05,0.17l4.44 0c0.69,0 1.87,0.12 2.14,-0.17 0.4,-0.4 -0.29,-0.99 -0.59,-1.14 -0.74,-0.37 -0.95,0.14 -1.66,-0.05 -0.22,-0.44 -0.19,-2.3 -2.07,-2.31 -1.88,-0 -1.85,1.87 -2.07,2.31z"/>
   <path class="fil2" d="M0.94 29.11l3.09 -0.01c0.1,-1.36 0.94,-2.52 1.93,-2.82l-0.3 -0.84c-5.39,0.4 -4.72,-1.36 -4.72,3.67z"/>
   <polygon class="fil7" points="9.64,47.45 11.15,47.45 11.15,38.75 9.64,38.8 "/>
   <path class="fil0" d="M35.83 32.9l9.74 0c0.39,0 0.43,-0.04 0.65,-0.18l0.03 -0.58c-0.26,-0.14 -0.29,-0.18 -0.68,-0.18l-9.74 0c-0.93,0 -0.97,0.95 0,0.95z"/>
   <path class="fil0" d="M1.8 15.41c0,1.29 1.38,0.06 1.61,-0.09 0.72,0.17 1.14,0.95 1.8,0.95 0.22,0 1.11,-0.83 1.61,-0.95 0.23,0.16 1.61,1.38 1.61,0.09 0,-0.34 -1.51,-1.23 -1.61,-1.23 -0.41,0 -1.31,0.74 -1.7,0.95 -1.66,-0.88 -1.26,-1.39 -2.58,-0.4 -0.24,0.18 -0.73,0.39 -0.73,0.69z"/>
   <path class="fil0" d="M9.55 12.86c0,0.2 0.31,0.78 1.02,0.26 0.18,-0.13 0.32,-0.24 0.49,-0.36 0.46,0.12 1.04,0.78 1.43,0.8 0.25,0.01 1.08,-0.62 1.4,-0.8 0.21,0.11 0.28,0.15 0.47,0.28 0.34,0.25 0.19,0.28 0.66,0.28 0.39,0 0.38,-0.35 0.38,-0.57 0,-0.39 -1.37,-1.13 -1.51,-1.13 -0.23,0 -1.2,0.7 -1.42,0.85 -0.02,-0.01 -0.04,-0.06 -0.05,-0.04l-0.55 -0.39c-0.32,-0.21 -0.51,-0.42 -0.81,-0.42 -0.23,0 -1.51,0.91 -1.51,1.23z"/>
   <path class="fil0" d="M44.13 34.97l0.03 -0.56c-0.6,-0.37 -4.21,-0.19 -5.5,-0.19 -0.53,-0 -1.42,-0.18 -1.42,0.47 0,0.65 0.9,0.47 1.42,0.47 1.28,-0 4.88,0.18 5.47,-0.19z"/>
   <path class="fil2" d="M38.76 3.12l0 0.28 -0.47 0c-0.46,0 -1.17,1.23 0.47,1.23 0,1.58 1.32,1.18 1.32,0.28l0 -0.28c1.64,0 0.93,-1.23 0.47,-1.23l-0.47 0c0,-1.56 -1.32,-1.15 -1.32,-0.28z"/>
   <path class="fil8" d="M1.23 8.7c0.27,0.37 1.59,0.43 1.7,1.8l0.19 0c0.02,-0.77 0.84,-1.59 1.61,-1.61l0 -0.19c-0.8,-0.19 -1.53,-0.71 -1.61,-1.61l-0.19 0c-0.1,0.43 -0.26,0.78 -0.54,1.06 -0.26,0.26 -0.7,0.5 -1.16,0.54z"/>
   <path class="fil9" d="M23.46 34.07l-0.59 0.04c-0.22,0.2 -0.19,-0.37 -0.18,1.06l0 3.63 0.77 0 0 -4.73z"/>
   <path class="fil0" d="M39.33 37.44c0.55,0.33 1.99,0.19 2.68,0.11 0.18,-0.41 0.18,-0.41 0,-0.81 -0.95,-0.14 -1.04,-0.08 -2.02,-0.07 -0.6,0 -0.77,0.14 -0.66,0.77z"/>
   <path class="fil4" d="M24.77 1.23c1.16,0.27 0.79,0.75 1.32,1.13 0.12,-0.53 0.33,-0.73 0.74,-0.96 0.36,-0.2 0.15,0.06 0.39,-0.27 -0.61,-0.14 -0.99,-0.53 -1.13,-1.13 -0.34,0.25 -0.04,-0.03 -0.24,0.33 -0.31,0.55 -0.3,0.51 -0.84,0.77 -0.03,0.01 -0.1,0.05 -0.13,0.06 -0.02,0.01 -0.05,0.03 -0.06,0.03 -0.01,0.01 -0.04,0.02 -0.06,0.03z"/>
   <path class="fil10" d="M7.18 4.63c0,0.87 1.32,0.83 1.32,0 0,-0.79 -1.32,-0.99 -1.32,0z"/>
   <path class="fil8" d="M43.1 8.7c0,0.87 1.32,0.84 1.32,0 0,-0.79 -1.32,-0.99 -1.32,0z"/>
   <path class="fil11" d="M23.46 34.07l-0 4.73 -0.77 0 0 -3.63c-0,-1.43 -0.04,-0.86 0.18,-1.06 -0.16,-0.07 0.22,-0.18 -0.24,-0.03 -0.09,0.57 -0.11,4.4 0.05,4.79 0.38,0.1 0.46,0.11 0.84,-0.03 0.11,-0.53 0.05,-3.22 0.06,-4.15 0,-0.42 0.02,-0.39 -0.12,-0.62z"/>
  </g>
 </g>
</svg>
