<?xml version="1.0" encoding="UTF-8"?>
<!DOCTYPE svg PUBLIC "-//W3C//DTD SVG 1.1//EN" "http://www.w3.org/Graphics/SVG/1.1/DTD/svg11.dtd">
<!-- Creator: CorelDRAW -->
<svg xmlns="http://www.w3.org/2000/svg" xml:space="preserve" width="16mm" height="15.9952mm" version="1.1" style="shape-rendering:geometricPrecision; text-rendering:geometricPrecision; image-rendering:optimizeQuality; fill-rule:evenodd; clip-rule:evenodd"
viewBox="0 0 68.9 68.88"
 xmlns:xlink="http://www.w3.org/1999/xlink"
 xmlns:xodm="http://www.corel.com/coreldraw/odm/2003">
 <defs>
  <style type="text/css">
   <![CDATA[
    .fil0 {fill:black}
    .fil5 {fill:#00ECA3}
    .fil9 {fill:#1CA8FE}
    .fil2 {fill:#5EB8FD}
    .fil11 {fill:#7A6C79}
    .fil3 {fill:#89C8FE}
    .fil10 {fill:#8F808E}
    .fil7 {fill:#CB6C35}
    .fil4 {fill:#DD8858}
    .fil8 {fill:#FDA80F}
    .fil1 {fill:#FDDBA6}
    .fil6 {fill:#FEC264}
   ]]>
  </style>
 </defs>
 <g id="Camada_x0020_1">
  <metadata id="CorelCorpID_0Corel-Layer"/>
  <g id="_1686266165376">
   <path class="fil0" d="M22.2 67.94c-0.2,-1.5 -1.73,-1.08 -3.23,-1.08 -1.48,0 -2.96,0 -4.44,0 -2.95,0 -5.91,0.01 -8.86,-0 -0.66,0 -2.7,0.11 -3.18,-0.08 -0.45,-0.18 -0.48,-0.6 -0.49,-1.13 -0.02,-0.87 -0.05,-0.89 0.43,-1.34 1.01,-0.95 2.71,-2.96 3.27,-3.34l3.04 -3.81c2.57,-3.27 6.31,-8.99 7.89,-12.78 6.97,0.52 12.79,3.37 17.87,7.36l3.26 3.06c2.86,3.41 5.66,7.34 6.95,12.06l-18.2 -0.01c-1.03,-0 -1.49,0.08 -1.61,1.08 0.05,0.61 0.4,0.85 0.93,0.94l2.31 0 29.74 0 8.56 0c0.68,-0.04 0.97,-0.22 1.38,-0.55 0.37,-0.29 0.77,-0.75 0.95,-1.21 0.07,-0.18 0.11,-0.78 0.14,-1.63l0 -11.01 0 -3.01c-0.15,-0.92 -0.59,-1.62 -1.75,-1.58 -0.8,0.02 -2.92,1.57 -5.09,0.13 -0.8,-0.53 -1.43,-1.57 -2.91,-1.26 -1.33,0.28 -2.88,2.95 -6.04,1.46 -0.99,-0.47 -1.34,-1.43 -2.67,-1.51 -2.02,-0.12 -2.72,2.88 -6.13,1.7 -1.26,-0.44 -1.48,-1.3 -2.7,-1.61 -1.41,-0.36 -2.05,0.54 -2.84,1.14 -1.05,0.8 -2.19,0.93 -3.14,0.13 -0.82,-0.69 -1.46,-1.19 -2.37,-1.8 -4.02,-2.67 -7.08,-4.05 -11.87,-5.22 -0.67,-0.16 -3.26,-0.49 -3.64,-0.67 -0.1,-0.22 -0.09,0.04 0.01,-0.27l2.45 -6.01c0.43,-1.08 0.75,-2.19 1.12,-3.32 0.2,-0.62 0.35,-1.14 0.53,-1.76 0.17,-0.59 0.41,-1.25 0.46,-1.83l0.28 0.8c0.7,2.94 0.44,6.92 -0.25,9.73 -0.13,0.55 -0.49,1.37 -0.43,1.97 0.11,1.05 1.47,2.15 2.9,1.04 2.73,-2.12 4.87,-5.63 5.16,-9.11 0.13,-1.6 -0.56,-2.98 -0.8,-4.03 3.84,2.57 6.44,8.4 6.89,8.86 0.85,0.87 2.72,0.64 3.02,-1.1 0.59,-3.39 -0.16,-7.64 -2.13,-10.56 -0.39,-0.58 -0.8,-0.91 -1.29,-1.4 -0.56,-0.57 -0.87,-0.75 -1.51,-1.18 -0.93,-0.62 -0.99,-0.49 -1.51,-0.78 -0.18,-0.1 -0.13,-0.07 -0.24,-0.16 3.12,0 5.97,0.59 8.76,1.6 0.43,0.16 0.72,0.31 1.17,0.45 1.73,0.52 3.11,-1.36 2.06,-2.88 -0.84,-1.22 -1.78,-2.2 -2.82,-3.24 -1.86,-1.87 -4.69,-3.64 -7.99,-3.99 -2.5,-0.26 -5.14,0.7 -7.02,1.82 -0.71,0.42 -1.22,0.84 -1.84,1.25 0.93,-4 1.41,-7.74 -1.13,-11.52 -0.5,-0.75 -0.95,-1.34 -1.56,-1.94 -2.11,-2.11 -4.16,-3.01 -6.83,-4.07 -1.57,-0.62 -4.39,-1.61 -4.86,0.75 -0.28,1.39 1.37,2.57 2.74,4.33 1.95,2.5 4.2,6.5 4.9,9.5 -0.63,-0.42 -2.7,-3.48 -6.73,-3.9 -3.81,-0.4 -7.01,0.89 -10.07,2.85 -1.52,0.97 -1.07,2.83 0.2,3.26 0.76,0.25 4.64,-0.15 9.35,1.41 0.37,0.12 0.62,0.19 1.01,0.34l0.86 0.48c-4.47,0 -7.24,3.14 -8.75,6.59 -0.29,0.65 -1.26,3.07 -1.15,3.86 0.19,1.41 1.8,1.98 3,0.95 1.2,-1.03 1.12,-1.13 2.78,-2.33 2.03,-1.47 3.71,-2.21 6.05,-2.97 0.38,-0.12 0.74,-0.18 1.03,-0.32 0.25,0.37 0.59,0.68 1.08,0.81 -0.04,1.59 -3.52,8.95 -4.6,10.74 -0.34,0.57 -0.6,1.07 -0.92,1.64 -0.3,0.52 -0.7,1.11 -1.04,1.65 -2.34,3.62 -0.41,1.29 -6.84,3.39 -2.41,0.79 -3.11,1.43 -3.28,2.89l0 4.2 0 15.49c0.1,1.33 1.2,2.45 2.47,2.54l14.42 0c1.15,-0.01 2.27,-0.01 3.33,0l0.78 0c0.7,-0.02 1.13,-0.18 1.19,-0.94z"/>
   <path class="fil1" d="M5.7 60.98c-0.18,0.78 -0.13,4.97 -0.02,5.89 2.95,0.01 5.91,0 8.86,0 1.48,0 2.96,0 4.44,0 1.49,0 3.02,-0.42 3.23,1.08l2.69 0c0.12,-1 0.59,-1.08 1.61,-1.08l18.2 0.01c-1.29,-4.72 -4.1,-8.64 -6.95,-12.06l-3.26 -3.06c-5.08,-3.99 -10.9,-6.84 -17.87,-7.36 -1.58,3.79 -5.31,9.51 -7.89,12.78l-3.04 3.81z"/>
   <path class="fil2" d="M47.1 58.97c1.57,-0.46 2.65,-2.81 4.81,-1.08 0.7,0.56 1.05,1.02 2.24,1.26 4.15,0.84 3.67,-3.85 7.56,-0.82 2.36,1.84 5.05,0.39 5.19,-0.21l0 -5.97c-1.42,0.49 -2.46,0.79 -4.11,0.39 -2.17,-0.52 -2.68,-1.83 -3.29,-1.71 -0.41,0.22 -0.49,0.44 -0.92,0.73 -2.2,1.49 -5.11,1.6 -7.26,-0.06 -0.51,-0.39 -0.31,-0.49 -0.97,-0.69 -0.3,0.01 -3.89,3.82 -8.22,0.74 -0.34,-0.24 -0.61,-0.6 -1.07,-0.74 0.23,0.45 0.47,0.66 0.87,1.06 1.27,1.24 3.43,4.43 4.4,6.1 0.64,1.11 0.4,0.83 0.78,1z"/>
   <path class="fil3" d="M48.04 60.84c-0.15,0.52 -0.08,0.24 0.41,1.43 0.54,1.3 1.31,3.26 1.58,4.59l14.29 -0c2.74,0 2.81,0.98 2.54,-6.18 -4.8,1.46 -5.1,-0.3 -7.25,-1.35 -0.85,0.33 -1.89,1.88 -4.57,1.91 -2.83,0.03 -3.95,-1.61 -4.71,-1.91l-2.29 1.51z"/>
   <path class="fil4" d="M2.02 57.33l-0 4.44c1.11,-0.74 5.29,-6.01 6.09,-7.12 3.87,-5.4 6.79,-10.7 9.33,-17.04 0.92,-2.28 2.95,-7.76 3.21,-10.24 -0.34,-0.21 -0.28,-0.31 -0.6,-0.34 -0.17,0.15 -1.39,3.77 -1.61,4.31 -2.74,6.88 -6.52,13.47 -10.96,19.32 -0.64,0.84 -4.67,6.08 -5.46,6.67z"/>
   <path class="fil0" d="M61.37 36.97c-0.81,-0.12 -1.04,-0.03 -1.41,0.63 -0.33,0.59 -0.45,0.82 -0.86,1.29 -0.59,0.68 -1.47,1.41 -2.75,1.62 -1.56,0.66 -3.65,-0.28 -4.54,-1.1 -0.93,-0.86 -1.83,-2.01 -1.84,-3.91 -0.01,-3 2.76,-5.92 6.09,-5.17 1.55,0.26 2.21,0.87 3,1.68 0.97,0.99 0.74,2.28 2.3,2.13 2,-1.22 -1.39,-4.62 -3.55,-5.45 -4.76,-1.82 -9.76,1.63 -9.91,6.54 -0.23,7.37 9.62,10.29 13.41,4.12 0.72,-1.17 0.94,-1.7 0.06,-2.39z"/>
   <path class="fil5" d="M22.07 19.81c0.57,-2.18 1.3,-3.19 1.4,-6.11 0.15,-4.27 -1.96,-7.38 -5.42,-9.43 -1.35,-0.8 -3.51,-1.72 -5.25,-2.1l2.95 3.74c0.96,1.42 1.63,2.62 2.49,4.24 1.08,2.02 2.1,5.24 2.47,7.61 0.14,0.9 0.01,1.32 1.37,2.06z"/>
   <path class="fil6" d="M56.35 40.5c1.28,-0.2 2.15,-0.94 2.75,-1.62 0.41,-0.47 0.53,-0.7 0.86,-1.29 0.37,-0.66 0.61,-0.75 1.41,-0.63 0.01,-0.55 0.13,-0.63 0.14,-1.32 0.01,-0.72 -0.02,-0.95 -0.14,-1.5 -1.55,0.15 -1.33,-1.14 -2.3,-2.13 -0.79,-0.81 -1.45,-1.43 -3,-1.68 -0.28,0.5 -0.98,0.79 -1.73,2.05 -1.95,3.28 0.13,7.65 2.01,8.12z"/>
   <path class="fil7" d="M2.02 57.33c0.8,-0.59 4.83,-5.83 5.46,-6.67 4.44,-5.85 8.22,-12.44 10.96,-19.32 0.21,-0.54 1.44,-4.17 1.61,-4.31 -0.22,-0.45 -0.75,-0.2 -1.31,-0.1 -2.19,7.69 -7.77,16.72 -12.68,22.58l-2.03 2.42c-2.53,2.91 -2.04,1.24 -2.02,5.4z"/>
   <path class="fil5" d="M25.46 20.45c0.57,0.37 0.92,0.68 1.27,1.2 3.08,-0.31 4.9,-0.71 8.18,-0.35 4.15,0.46 4.77,1.17 7.32,1.69 -0.48,-0.92 -2.23,-2.55 -3.06,-3.24 -0.99,-0.82 -2.58,-1.81 -4.24,-2.23 -3.4,-0.86 -7.82,0.88 -9.48,2.92z"/>
   <path class="fil5" d="M27.34 25.78c1.5,0.76 3.13,2.03 4.27,3.14 2.1,2.05 2.96,3 4.54,5.56 0.32,0.52 0.59,1.17 0.97,1.59 0.47,-7.17 -2.66,-11.28 -9.54,-11.6l-0.24 1.31z"/>
   <path class="fil5" d="M3.14 15.53c2.85,0.53 3.63,-0.05 7.97,1.33 1.19,0.38 2.33,0.83 3.37,1.35 0.35,0.17 1.27,0.76 1.48,0.82 0.45,0.12 1.26,-0.32 1.64,-0.61 -0.83,-1.99 -3.41,-4.23 -5.88,-4.85 -3.26,-0.81 -6.3,0.72 -8.56,1.97z"/>
   <path class="fil8" d="M56.35 40.5c-1.87,-0.47 -3.96,-4.84 -2.01,-8.12 0.75,-1.25 1.45,-1.55 1.73,-2.05 -3.33,-0.75 -6.1,2.17 -6.09,5.17 0.01,1.9 0.9,3.04 1.84,3.91 0.88,0.82 2.97,1.75 4.54,1.1z"/>
   <path class="fil9" d="M47.1 58.97c-0.38,-0.18 -0.14,0.11 -0.78,-1 -0.97,-1.68 -3.13,-4.86 -4.4,-6.1 -0.41,-0.4 -0.65,-0.61 -0.87,-1.06 -0.54,0.25 -0.78,0.6 -1.28,0.93 -0.51,0.33 -0.96,0.45 -1.41,0.74l1.81 2.1c1.32,1.46 2.37,3.53 3.61,4.19 0.94,0.5 2.27,0.67 3.32,0.22z"/>
   <path class="fil5" d="M24.36 28.35c0.22,2.06 0.78,2.44 0.76,5.95 -0.02,3.08 -0.69,4.86 -0.72,5.99 0.3,-0.38 1.16,-1.07 2.04,-2.43 1.43,-2.22 1.98,-4.7 0.91,-7.22 -0.55,-1.29 -1.15,-1.89 -1.76,-2.79l-1.23 0.51z"/>
   <path class="fil5" d="M5.22 28.75l2.01 -1.49c2.01,-1.47 4.71,-2.89 7.27,-3.51l-0.09 -1.92c-2.99,-0.26 -4.5,0.33 -6.21,1.82 -1.03,0.9 -2.63,3.15 -2.98,5.1z"/>
   <path class="fil2" d="M50.04 66.86c-0.27,-1.33 -1.04,-3.28 -1.58,-4.59 -0.49,-1.19 -0.57,-0.92 -0.41,-1.43 -1.41,0.34 -1.79,0.48 -3.43,0.33 0.67,1.9 1.66,3.52 2.21,5.69l3.22 0z"/>
   <path class="fil6" d="M5.67 66.86c-0.11,-0.92 -0.16,-5.11 0.02,-5.89 -0.55,0.38 -2.25,2.39 -3.27,3.34 -0.48,0.45 -0.45,0.47 -0.43,1.34 0.01,0.53 0.04,0.95 0.49,1.13 0.48,0.19 2.51,0.08 3.18,0.08z"/>
   <path class="fil6" d="M2.07 51.07c0.72,-0.65 4.57,-5.35 4.94,-6.13 -1.09,0.13 -3.38,0.82 -4.33,1.2 -0.91,0.37 -0.68,1.09 -0.67,2.15 0,0.84 -0.08,1.98 0.05,2.77z"/>
   <path class="fil10" d="M21.74 25.75c2.45,1.99 4.97,-1.07 3.36,-2.96 -0.52,-0.62 -0.99,-0.87 -2.12,-0.84 -0,2.64 -0.46,2.39 -1.24,3.8z"/>
   <path class="fil10" d="M19.26 24.7c1.87,0.01 2.69,-3.67 -0.25,-4.3 -0.59,1.03 -1.49,3.55 0.25,4.3z"/>
   <path class="fil11" d="M19.26 24.7c-1.73,-0.75 -0.84,-3.27 -0.25,-4.3 -3.48,-0.37 -3.14,4.66 -0.31,4.47l0.55 -0.17z"/>
   <path class="fil0" d="M54.1 45.47c0,1.17 -0.22,2.56 1.08,2.56 1.33,0 1.08,-1.39 1.08,-2.56 0,-1.52 -2.15,-1.5 -2.15,0z"/>
   <path class="fil0" d="M62.17 29.45c0.75,0 2.48,-1.55 2.19,-2.45 -0.88,-2.66 -5.13,2.45 -2.19,2.45z"/>
   <path class="fil0" d="M54.1 24.07c0,0.72 -0.21,2.56 1.08,2.56 1.57,0 1.41,-3.77 0.13,-3.77 -0.73,0 -1.21,0.48 -1.21,1.21z"/>
   <path class="fil0" d="M64.06 35.51c0,1.38 3.27,1.47 3.67,0.29 0.57,-1.66 -1.81,-1.37 -2.59,-1.37 -0.65,0 -1.08,0.43 -1.08,1.08z"/>
   <path class="fil0" d="M63.39 44.66c0.51,0 0.86,-0.33 0.97,-0.77 0.24,-0.92 -1.5,-2.46 -2.18,-2.46 -1.04,0 -1.28,1.13 -0.71,1.79 0.38,0.44 1.25,1.44 1.92,1.44z"/>
   <path class="fil0" d="M46.02 27.03c0,1.04 0.01,0.76 0.84,1.58 0.83,0.83 0.54,0.84 1.58,0.84 0.02,0 1.8,-0.44 -0.03,-2.25 -0.37,-0.36 -0.81,-0.98 -1.45,-0.98 -0.38,0 -0.94,0.43 -0.94,0.81z"/>
   <path class="fil0" d="M46.02 43.58c0,0.64 0.35,1.08 0.94,1.08 0.87,0 2.29,-1.88 2.29,-2.02 0,-0.71 -0.35,-1.21 -1.08,-1.21 -0.72,0 -2.15,1.44 -2.15,2.15z"/>
   <path class="fil0" d="M44.41 36.58c2.83,0 2.03,-2.15 0.81,-2.15l-1.75 0c-0.86,0 -1.81,2.15 0.94,2.15z"/>
  </g>
 </g>
</svg>
