<?xml version="1.0" encoding="UTF-8"?>
<!DOCTYPE svg PUBLIC "-//W3C//DTD SVG 1.1//EN" "http://www.w3.org/Graphics/SVG/1.1/DTD/svg11.dtd">
<!-- Creator: CorelDRAW -->
<svg xmlns="http://www.w3.org/2000/svg" xml:space="preserve" width="174.317mm" height="180.577mm" version="1.1" style="shape-rendering:geometricPrecision; text-rendering:geometricPrecision; image-rendering:optimizeQuality; fill-rule:evenodd; clip-rule:evenodd"
viewBox="0 0 3113.47 3225.28"
 xmlns:xlink="http://www.w3.org/1999/xlink"
 xmlns:xodm="http://www.corel.com/coreldraw/odm/2003">
 <defs>
  <style type="text/css">
   <![CDATA[
    .str1 {stroke:#FEFEFE;stroke-width:3.57;stroke-miterlimit:22.9256}
    .str0 {stroke:#ED3237;stroke-width:3.57;stroke-miterlimit:22.9256}
    .fil3 {fill:#FEFEFE}
    .fil1 {fill:#ED3237}
    .fil0 {fill:black}
    .fil4 {fill:gray}
    .fil2 {fill:#8DEBEF}
   ]]>
  </style>
 </defs>
 <g id="Camada_x0020_1">
  <metadata id="CorelCorpID_0Corel-Layer"/>
  <path class="fil0" d="M651.61 144.9c25.97,60.11 53.87,52.42 123.44,36.65 223.06,-50.56 211.76,-37.5 470.25,35.75 266.57,75.54 541.86,216.36 754.63,373.15 37.48,27.62 74.83,55.36 105.59,83.43 18.91,17.26 34.07,25.7 51.21,43.41 17.63,18.21 25.89,28.62 43.02,45.01 91.74,87.74 280.81,327.13 294.95,450.98 -238.45,-58.95 -847.09,-290.23 -1019.64,-285.45 -189.28,5.24 -312.93,137.6 -349.07,304.62 -41.27,190.73 26.32,360.54 132.06,503.15 310.47,418.74 708.04,585.79 1175.31,790.25l464.5 189.51c-24.69,130.64 -93.26,162.32 -153.41,229.66 -36.27,40.6 -156.08,131.34 -229.31,149.72 -58.19,14.6 -204.71,-76.34 -262.23,-105.13 -84.79,-42.45 -166.86,-83.56 -251.91,-126.09 -161.21,-80.62 -353.49,-166.87 -496.49,-259.3 -80.6,-52.1 -148.77,-101.4 -222.86,-155.16 -75.85,-55.03 -138.96,-111.12 -210.14,-167.73l-105.58 -89.92c-19.26,-15.04 -30.65,-29.55 -49.56,-44.82l-329.46 -331.93c-134.9,-147.39 -298.82,-384.61 -367.35,-577.81 -40.95,-115.43 -57.62,-193.2 -21.41,-315.18 31.48,-106.05 112.55,-242.81 112.25,-266.4 -0.5,-38.49 -116.57,-175.1 -149.87,-226.85 20.84,-22.96 91.07,-51.18 124.61,-68.46 51.74,-26.66 89.07,-34.41 74.92,-107.94 -50.71,-76.73 -149.74,2.04 -247.69,54.63 -94.58,50.78 -153.97,68.16 -77.15,169.49 10.57,13.94 16.9,22.26 27.09,35.91l108.83 149.47c-26.83,40.07 -47.73,90.76 -67.56,140.35 -22.1,55.28 -33.86,102.21 -49.68,164.52 -15.38,60.56 -21.08,111.06 -29.49,178.42 -14.17,113.48 -28.02,298.43 -16.15,404.12l18.03 296.98c5.34,112.77 18.03,165.17 100.75,220.56 -1.43,64.04 -19.55,72.06 19.64,169.37 49.36,122.56 231.08,182.8 366.77,250.65l1369.4 684.45c99.99,42.83 189.95,19.14 272.25,-40.32 13.86,-10.01 20.68,-11.76 25.79,-30.91 148.71,34.65 235.42,209.7 466.55,75.93 102.86,-59.53 281.7,-206.98 333.78,-308.84 36.01,-70.43 80.24,-256.68 94.38,-340.34 9.3,-55.02 31.89,-232.66 31.43,-289.88 -0.35,-43.16 6.62,-57.58 6.45,-100.66 -0.29,-71.41 -0.47,-142.99 -0.11,-214.39 0.87,-168.98 -35.07,-409.36 -70.92,-578 -24.84,-116.85 -58.38,-232.23 -99.15,-335.56 -75.34,-190.93 -176.65,-337.2 -313.43,-486.69l-143.81 -127.1c-141.6,-110.63 -236.63,-164.16 -408.1,-240.81 -49.19,-21.99 -105.6,-42.07 -156.1,-58.11 -173.42,-55.07 -368.05,-86.9 -562.73,-95.25l-206.14 0c-131.43,5.71 -259.37,22.48 -377.02,50.4 -62.88,14.92 -132.75,12.1 -124.34,94.5z"/>
  <path class="fil1 str0" d="M523.01 189.01c4.55,44.09 -7.07,74.11 -44.05,82.18 -45.45,9.92 -60.26,-19.81 -81.02,-37.39 -16.56,13.08 -19.45,9.43 -37.88,18.21 14.15,73.53 -23.18,81.28 -74.92,107.94 -33.54,17.29 -103.77,45.5 -124.61,68.46 33.3,51.75 149.37,188.36 149.87,226.85 0.31,23.59 -80.76,160.35 -112.25,266.4 -36.21,121.98 -19.54,199.75 21.41,315.18 68.53,193.21 232.45,430.42 367.35,577.81l329.46 331.93c18.92,15.27 30.3,29.78 49.56,44.82l105.58 89.92c71.17,56.61 134.29,112.7 210.14,167.73 74.09,53.76 142.26,103.06 222.86,155.16 143,92.43 335.28,178.68 496.49,259.3 85.05,42.53 167.12,83.65 251.91,126.09 57.52,28.79 204.05,119.74 262.23,105.13 73.23,-18.38 193.04,-109.12 229.31,-149.72 60.15,-67.33 128.72,-99.02 153.41,-229.66l-464.5 -189.51c-467.27,-204.46 -864.84,-371.51 -1175.31,-790.25 -105.74,-142.61 -173.32,-312.43 -132.06,-503.15 36.14,-167.02 159.78,-299.38 349.07,-304.62 172.55,-4.78 781.18,226.5 1019.64,285.45 -14.14,-123.85 -203.21,-363.24 -294.95,-450.98 -17.14,-16.39 -25.4,-26.8 -43.02,-45.01 -17.14,-17.71 -32.3,-26.15 -51.21,-43.41 -30.76,-28.07 -68.11,-55.81 -105.59,-83.43 -212.77,-156.79 -488.06,-297.62 -754.63,-373.15 -258.49,-73.25 -247.2,-86.31 -470.25,-35.75 -69.56,15.77 -97.46,23.45 -123.44,-36.65l-128.6 44.1z"/>
  <path class="fil2" d="M1791.12 2060.16c118.8,118.23 787.91,390.73 985.77,468.76 36.4,14.35 122.22,53.39 153.72,58.37 35.49,-72.85 55.07,-444.31 55.59,-546.03 0.84,-163.87 -9.71,-403.88 -46.06,-557.65 -146.02,-51.21 -298.96,-92.34 -447.41,-138.51 -150.23,-46.72 -297.84,-90.74 -448.27,-137.51 -14.35,-4.46 -106.28,-33.86 -111.32,-33.59 -14.58,0.78 -12.57,-5 -19.04,45.73 -2.89,22.72 -6.36,44.19 -9.58,66.07 -12.71,86.3 -25.35,172.48 -37.99,258.21 -24.47,166.07 -59.84,351.55 -75.41,516.15z"/>
  <path class="fil2" d="M1675.8 1978.8l123.6 -844.43c-36.13,-18.74 -144.73,-46.91 -188.79,-60.15 -365.4,-109.87 -446.71,268.2 -300.04,514.24 51.6,86.55 156.41,208.69 227.41,276.64 23.41,22.4 40.07,36.18 66.74,59.25 16.83,14.56 49.79,43.73 71.07,54.45z"/>
  <path class="fil3 str1" d="M2640.98 1259.78l269.43 82.09c-23.24,-137.69 -119.07,-390.82 -183.92,-488.82 -89.07,-134.61 -190.88,-262.14 -320.8,-359.68 -292.54,-219.65 -622.01,-348.24 -1003.54,-362.25l207.36 87.42c161.47,71.24 328.32,166.44 466.12,270.96 141.91,107.63 271.74,224.54 375,368.46 77.4,107.88 155.74,240.52 190.35,401.83z"/>
  <path class="fil3 str1" d="M136.56 1474.24c0.41,126.59 11.21,252.59 19.87,377.93 8.19,118.47 11.91,94.49 210.98,194.2 80.64,40.39 495.63,254.76 541.68,267.82l-110.7 -106.27c-91.28,-88.62 -120.51,-102.54 -216.05,-212.48 -33.23,-38.23 -66.51,-70.85 -101.97,-112.09 -110.21,-128.16 -181.86,-227.63 -269.86,-372.84 -22.61,-37.31 -52.11,-107.06 -74.21,-135.36l0.24 99.08z"/>
  <path class="fil4" d="M2061.58 3036.68l-1808.92 -907.24c-1.39,102.63 96.37,132.57 170.88,169.83l1385.91 693.12c60.87,30.44 186.07,115.22 252.14,44.3z"/>
  <path class="fil0" d="M2243.68 2776.11c-37.59,13.59 -56.12,53.59 -33.09,92.02 15.12,25.24 262.6,156.57 307.53,140.52 34.44,-12.3 48.44,-60.88 28.66,-91.92 -16.09,-25.24 -263.59,-154.92 -303.1,-140.63z"/>
  <path class="fil0" d="M341.66 414.26c-100.07,34.45 1.65,144.06 51.02,208.43 59.04,76.97 128.52,20.83 120.44,-36.43 -3.56,-25.2 -69.96,-106.15 -94.02,-141.28 -14.9,-21.76 -39.03,-43.94 -77.44,-30.72z"/>
  <path class="fil0" d="M564.44 333.74c-88.06,44.04 -9.51,118.76 55.47,206.69 56.23,76.09 137.4,18.85 117.14,-46.66 -5.7,-18.43 -33.29,-52.48 -45.44,-69.27 -13.56,-18.72 -33.43,-46.69 -48.61,-64.72 -16.17,-19.2 -42.73,-43.96 -78.55,-26.04z"/>
  <path class="fil0" d="M397.94 233.8c20.75,17.58 35.56,47.31 81.02,37.39 36.98,-8.07 48.59,-38.09 44.05,-82.18 -13.32,-30.24 -39.16,-50.19 -75.7,-39.44 -40.05,11.79 -49.36,34.57 -49.36,84.23z"/>
  <path class="fil0" d="M2080.46 2694.55c-80.29,28.57 -36.88,142.41 40.1,118.31 76.37,-23.92 39.91,-146.78 -40.1,-118.31z"/>
 </g>
</svg>
