<?xml version="1.0" encoding="UTF-8"?>
<!DOCTYPE svg PUBLIC "-//W3C//DTD SVG 1.1//EN" "http://www.w3.org/Graphics/SVG/1.1/DTD/svg11.dtd">
<!-- Creator: CorelDRAW -->
<svg xmlns="http://www.w3.org/2000/svg" xml:space="preserve" width="16.2mm" height="11.1366mm" version="1.1" style="shape-rendering:geometricPrecision; text-rendering:geometricPrecision; image-rendering:optimizeQuality; fill-rule:evenodd; clip-rule:evenodd"
viewBox="0 0 33.04 22.71"
 xmlns:xlink="http://www.w3.org/1999/xlink"
 xmlns:xodm="http://www.corel.com/coreldraw/odm/2003">
 <defs>
  <style type="text/css">
   <![CDATA[
    .str0 {stroke:#FEFEFE;stroke-width:0.41;stroke-miterlimit:22.9256}
    .fil0 {fill:#FEFEFE}
    .fil1 {fill:#4D1C00}
    .fil2 {fill:#E4D5CA}
   ]]>
  </style>
 </defs>
 <g id="Camada_x0020_1">
  <metadata id="CorelCorpID_0Corel-Layer"/>
  <rect class="fil0 str0" x="0.2" y="0.2" width="32.63" height="22.3" rx="3.87" ry="1.5"/>
  <path class="fil1" d="M6.74 6.91c0.08,0.09 0.38,0.79 0.49,0.99 1.21,2.21 2.24,3.5 3.92,5.26 0.19,0.2 0.66,0.59 0.75,0.78 -0.18,0.22 -0.66,0.51 -0.91,0.71 -1.58,1.2 -1,1.12 -3.29,1.75 -0.46,0.13 -0.86,0.22 -1.35,0.27 -0.38,0.04 -1.24,0.04 -1.53,0.16 -0.36,0.14 -0.39,0.6 0.84,0.48 1.32,-0.13 2.8,-0.43 4,-1 0.47,-0.22 0.64,-0.4 1,-0.68 0.37,-0.3 1.73,-1.25 1.88,-1.43 0.37,-0.45 -0.25,-0.8 -0.46,-0.98 -1.05,-0.94 -2.31,-2.33 -3.11,-3.56 -0.22,-0.34 -0.41,-0.68 -0.63,-1.05 -0.24,-0.41 -1.06,-1.79 -1.29,-2.02 -0.4,-0.4 -0.95,0.1 -1.18,0.3 -1.37,1.16 -3.57,1.03 -3.64,0.39 -0.09,-0.82 0.46,-1.83 0.95,-2.39 0.34,-0.39 0.41,-0.46 1.08,-0.6 0.35,-0.07 2.83,-0.35 2.91,-0.4 0.19,-0.12 0.31,-0.98 0.42,-1.26 0.12,-0.34 0.44,-0.89 0.66,-0.96 0.03,0.58 -0,0.94 -0.09,1.49 -0.04,0.29 -0.26,1.13 -0.22,1.34 0.75,0.55 0.83,-1.01 1.74,-1.08 0.43,0.83 -1.25,1.34 -0.86,2.24 0.31,0.73 0.8,1.54 1.29,2.12 0.61,0.72 0.94,1.17 1.62,1.74 0.84,0.71 1.47,0.63 2.76,0.56 1.06,-0.06 2.1,-0.14 3.13,-0.23 2.26,-0.2 4.06,-0.46 6.38,-0.46 0.55,0 1.09,0.02 1.63,0.08 0.48,0.05 1.11,0.3 1.49,0.2 0.09,-0.15 0.1,-0.27 0.23,-0.46 0.1,-0.15 0.2,-0.27 0.32,-0.42l0.48 -0.64c0.02,-0.03 0.07,-0.09 0.09,-0.11 0.1,-0.09 0.01,-0.03 0.13,-0.09 0.17,0.99 -0.06,1.79 -0.73,2.44 -0.28,0.27 -0.21,0.39 -0.24,0.85 -0.04,0.63 -0.06,1.35 -0.18,1.95 -0.14,0.74 -0.63,1.19 -0.34,1.61 0.3,0.43 0.65,0.77 0.94,1.2 0.41,0.63 0.96,2.07 1.4,2.89 0.18,0.33 0.59,1.2 1.07,1 0.12,-0.26 -0.06,-0.53 -0.17,-0.74 -0.13,-0.24 -0.25,-0.44 -0.38,-0.69l-0.68 -1.42c-0.31,-0.75 -0.75,-1.34 -1.22,-1.95 -0.16,-0.21 -0.28,-0.42 -0.45,-0.61 0.17,-0.57 0.42,-0.8 0.43,-1.63 0,-0.3 0.06,-0.64 0.06,-0.93 0.01,-1.53 -0.16,-0.61 0.52,-1.54 0.66,-0.89 0.7,-3.09 0.28,-3.31 -0.17,-0.09 -0.34,-0.05 -0.46,0.06 -0.21,0.19 -1.08,1.49 -1.55,1.94l-0.57 -0.16c-0.6,-0.07 0,0 -0.6,-0.07l-0.55 -0.04c-0.63,-0.02 0,0 -0.63,-0.02l-0.76 0c-0.69,0.05 0,0 -0.69,0.05l-0.76 0.07c-0.73,0.02 0,0 -0.63,0.02l-0.89 0.04c-0.58,0.08 0,0 -0.58,0.08l-1 0.07c-0.6,0.05 0,0 -0.6,0.05l-1.13 0.09c-0.43,0.08 0,0 -0.43,0.08l-0.74 0.06c-0.05,0 -0.07,0 -0.12,-0l-0.07 -0.02c-0.6,0.06 -0.6,0.06 -0.6,0.06 -0.16,0.09 -0.85,0.06 -1.1,0.05 -0.56,0.06 0,0 -0.56,0.06 -1.08,0.08 -1.5,-0.45 -2.12,-1.07 -0.7,-0.71 -0.86,-0.79 -1.49,-1.73 -0.29,-0.42 -0.55,-0.88 -0.74,-1.42 0.76,-0.6 1.45,-2.31 0.67,-2.48 -0.5,-0.11 -0.73,0.06 -1.09,0.16 0.04,-0.53 0.1,-0.82 0.03,-1.38 -0.05,-0.47 -0.11,-0.86 -0.68,-0.75 -0.71,0.14 -1.28,1.49 -1.4,2.26 -0.05,0.31 -0.1,0.23 -0.48,0.27 -0.84,0.07 -1.7,0.21 -2.5,0.42 -0.88,0.23 -1.13,0.63 -1.61,1.33 -0.47,0.68 -1.23,2.52 0.14,3.01 0.73,0.25 1.88,0.15 2.59,-0.09 0.88,-0.3 1.31,-0.96 1.76,-1.16z"/>
  <path class="fil1" d="M7.04 20.45c0.3,0.21 0.62,-0.17 0.94,-0.33 0.35,-0.18 0.69,-0.25 1.05,-0.4 2.04,-0.83 2.07,-1.12 3.37,-2.51l0.78 -0.72c0.42,-0.36 0.53,-0.63 0.84,-0.67l0.04 0.76c-0.6,0.18 -0.7,0.08 -1.17,0.46 -0.24,0.2 -0.62,0.57 -0.35,1.07 0.17,0.33 0.65,0.46 1.15,0.49 0.7,0.04 0.87,-0.12 1.4,-0.23 0.13,0.13 0.16,0.2 0.24,0.39 0.11,0.25 0.19,0.34 0.11,0.41 -0.05,0.04 -1.44,0.37 -1.64,0.41 -0.35,0.09 -1.39,0.16 -1.4,0.57 0.26,0.14 1.38,-0.22 1.75,-0.31 0.31,-0.07 1.55,-0.32 1.72,-0.42 0.08,-0.39 -0.4,-1.3 -0.6,-1.4 -0.26,-0.13 -0.48,0.08 -0.73,0.14 -0.27,0.07 -0.6,0.09 -0.89,0.07 -1.34,-0.09 -0.88,-0.9 0.03,-1.19 0.16,-0.05 0.27,-0.08 0.42,-0.1 0.59,-0.08 0.3,-0.21 0.35,-0.82l0.49 0.27c0.07,1.25 0.14,0.43 1.01,1.78 0.41,0.63 0.22,0.9 1.96,0.63 0.82,-0.13 1.81,-0.11 2.67,-0.13 0.76,-0.02 0.46,-0.15 0.75,-0.65 0.11,-0.2 0.53,-0.67 0.84,-0.39 0.21,0.25 -0.36,1.03 -0.64,1.2 -0.34,0.21 -0.66,0.79 0.17,1 0.48,0.12 1.12,0.16 1.64,0.23 0.27,0.04 0.55,0.06 0.83,0.08 0.36,0.02 0.69,0.12 0.65,-0.27 -0.28,-0.1 -1.27,-0.13 -1.68,-0.19l-1.18 -0.21c-0.18,-0.03 -0.22,-0.03 -0.34,-0.11 0.12,-0.32 0.36,-0.23 0.74,-0.82 0.71,-1.09 -0.15,-1.8 -0.99,-1.17 -0.44,0.33 -0.38,0.67 -0.64,0.89 -0.72,0.02 -1.41,0.04 -2.13,0.07 -0.73,0.04 -1.25,0.19 -2.02,0.15 -0.75,-1.41 -1.35,-1.24 -1.23,-1.87 0.17,0.02 0.36,0.12 0.57,0.18 1.33,0.34 5.03,0.49 6.17,0.28 0.38,-0.07 0.77,-0.14 1.19,-0.26 0.39,-0.11 0.73,-0.22 1.07,-0.38 0.29,-0.13 0.75,-0.44 0.98,-0.5 0.06,0.44 0.24,1.11 0.36,1.57 0.27,1.08 0.71,2.53 1.35,3.44 0.14,0.2 0.23,0.42 0.58,0.38 0.29,-0.46 -0.34,-1.07 -0.67,-1.97 -0.27,-0.74 -0.44,-1.38 -0.68,-2.16 -0.11,-0.38 -0.26,-0.72 -0.38,-1.07 -0.13,-0.38 -0.15,-0.8 -0.58,-0.81 -0.32,-0.01 -1.64,0.64 -2.05,0.78 -1.53,0.53 -3.54,0.47 -5.32,0.39 -1.14,-0.06 -2.42,-0.26 -3.3,-0.97 -0.22,-0.18 -0.56,-0.58 -0.96,-0.38 -0.16,0.11 -0.06,0.08 -0.18,0.24l-0.98 0.89c-0.68,0.54 -1.25,1.32 -1.87,1.86 -0.44,0.39 -1.28,0.76 -1.97,1.02 -0.55,0.21 -1.75,0.64 -1.69,1.26z"/>
  <path class="fil1" d="M18.31 13.01c0.12,0.12 0.05,0.25 -0.13,0.15l0.13 -0.15zm3.55 -0.76c0.16,-0.11 0.2,-0.08 0.27,0.05 -0.05,0.04 -0.02,0.08 -0.17,0.04 -0.12,-0.03 -0.08,-0.07 -0.1,-0.09zm0.07 -0.65c-1.15,0.11 -4.8,0.31 -5.61,0.57 -0.4,0.13 -0.92,0.23 -0.69,0.8 0.13,0.32 0.53,0.48 0.9,0.65 1.42,0.64 4.02,0.64 5.55,0.44 1.16,-0.15 2.31,-0.75 3.07,-1.54 0.45,-0.48 0.12,-0.87 -0.19,-0.93 -0.44,-0.09 -2.54,-0.04 -3.03,0.01z"/>
  <path class="fil1" d="M24.77 21.14c0,-0.28 0.01,-0.26 -0.27,-0.3l-1.37 -0.18c-0.59,-0.07 -1.47,-0.33 -1.71,-0.18 -0.47,0.29 -0.76,0.49 -1.38,0.68 -0.42,0.13 -1.12,0.37 -1.59,0.4 -0.66,0.05 -1.26,0.01 -1.77,-0.28 -0.87,-0.5 -0.2,-0.86 -1.08,-0.97 -0.68,-0.09 -1.17,0.1 -1.73,0.32 -0.21,0.08 -1.34,0.48 -1.42,0.59 -0.41,0.52 1.27,-0.16 1.32,-0.18 0.58,-0.21 0.94,-0.42 1.66,-0.4 0.49,0.01 0.33,0.15 0.53,0.49 0.4,0.67 1.45,0.82 2.22,0.81 1,-0.01 2.48,-0.5 3.17,-0.93 0.34,-0.21 0.21,-0.3 0.73,-0.17 0.55,0.13 2.3,0.43 2.7,0.29z"/>
  <path class="fil1" d="M4.58 5.13c-0.4,0.29 0.17,0.85 0.48,0.63 0.31,-0.21 -0.05,-0.94 -0.48,-0.63z"/>
  <path class="fil1" d="M14.17 17.68l0 -0.3c-0.59,-0.39 -0.68,0.65 -0,0.3z"/>
  <path class="fil2" d="M21.86 12.25c0.02,0.02 -0.02,0.06 0.1,0.09 0.15,0.04 0.11,-0.01 0.17,-0.04 -0.07,-0.13 -0.11,-0.16 -0.27,-0.05z"/>
  <path class="fil2" d="M18.18 13.16c0.18,0.09 0.26,-0.03 0.13,-0.15l-0.13 0.15z"/>
 </g>
</svg>
